<svg width="16" height="16" viewBox="0 0 16 16" fill="none" xmlns="http://www.w3.org/2000/svg">
    <path fill-rule="evenodd" clip-rule="evenodd" d="M7.529 2.195c.26-.26.682-.26.942 0l2 2a.667.667 0 0 1-.942.943l-.862-.862v5.057a.667.667 0 1 1-1.334 0V4.276l-.862.862a.667.667 0 0 1-.942-.943l2-2zM.667 8.667c.368 0 .666.298.666.666V12c0 .368.299.667.667.667h12a.667.667 0 0 0 .667-.667V9.333a.667.667 0 1 1 1.333 0V12a2 2 0 0 1-2 2H2a2 2 0 0 1-2-2V9.333c0-.368.298-.666.667-.666z" fill="#293644"/>
</svg>
