<svg width="30" height="30" viewBox="0 0 30 30" fill="none" xmlns="http://www.w3.org/2000/svg">
    <path d="M5.393 9.295c0 1.375 6.135-.28 6.135-.28l.137-.036M15.672 24.175c-3.136 2.652-6.583-.986-8.885-4.307a2.744 2.744 0 0 0-2.539-1.022M11.914 20.464l3.957 3.906c.125-.098 2.9-.207 2.8-2.337" stroke="#fff" stroke-width="1.5" stroke-linecap="round" stroke-linejoin="round"/>
    <path d="m14.428 17.909 4.53 4.404c.124-.11 2.563-.255 2.575-2.336" stroke="#fff" stroke-width="1.5" stroke-linecap="round" stroke-linejoin="round"/>
    <path d="M16.593 10.536c.597.414 7.616 5.28 7.579 7.799-.025 1.776-2.427 1.861-2.427 1.861l-4.032-4.124" stroke="#fff" stroke-width="1.5" stroke-linecap="round" stroke-linejoin="round"/>
    <path d="m22.093 7.166-.248-.11a12.517 12.517 0 0 0-6.857-1.046c-.934.134-1.98 1.326-2.601 2.02a9.293 9.293 0 0 0-1.817 3.163c-.212.645.15 1.338.796 1.545a.95.95 0 0 0 .2.049 3.942 3.942 0 0 0 2.961-.706l2.775-2.153M24.271 7.227l3.796 11.047M5.729 8.26 1.933 19.309M27.569 16.838l-3.522.864" stroke="#fff" stroke-width="1.5" stroke-linecap="round" stroke-linejoin="round"/>
</svg>
