<svg width="16" height="16" viewBox="0 0 16 16" fill="none" xmlns="http://www.w3.org/2000/svg">
    <path fill-rule="evenodd" clip-rule="evenodd" d="M8 2.667a5.13 5.13 0 0 0-3.871 1.772.667.667 0 1 1-1.004-.878A6.463 6.463 0 0 1 8 1.333c3.578 0 6.462 2.926 6.532 6.533l.325-.332a.667.667 0 1 1 .953.932l-1.467 1.5a.667.667 0 0 1-.953 0l-1.467-1.5a.667.667 0 0 1 .954-.932l.321.329C13.128 4.967 10.813 2.667 8 2.667zM2.133 5.833c.18 0 .352.073.477.2l1.467 1.5a.667.667 0 1 1-.954.933l-.321-.329c.07 2.896 2.384 5.196 5.198 5.196a5.13 5.13 0 0 0 3.871-1.772.667.667 0 0 1 1.003.878A6.463 6.463 0 0 1 8 14.667c-3.578 0-6.462-2.926-6.532-6.533l-.325.332a.667.667 0 0 1-.953-.932l1.467-1.5a.667.667 0 0 1 .476-.2z" fill="#fff"/>
</svg>
