<svg width="20" height="20" viewBox="0 0 20 20" fill="none" xmlns="http://www.w3.org/2000/svg">
    <g clip-path="url(#xtcwtut7ya)">
        <path fill-rule="evenodd" clip-rule="evenodd" d="M8.361 3.718 3.54 4.789a.833.833 0 0 0-.593.504L2.064 7.5h4.12l2.177-3.782zm.806 1.942V16.46L3.986 15.31a.833.833 0 0 1-.653-.814v-5.33h3.334c.298 0 .573-.159.722-.417l1.778-3.09zm-7.5 3.507H.833A.833.833 0 0 1 .06 8.024l1.34-3.35a2.5 2.5 0 0 1 1.778-1.512l6.28-1.395a2.5 2.5 0 0 1 1.084 0l6.28 1.395A2.5 2.5 0 0 1 18.6 4.674l1.34 3.35a.833.833 0 0 1-.774 1.143h-.834v5.33a2.5 2.5 0 0 1-1.957 2.44l-5.834 1.296a2.506 2.506 0 0 1-1.084 0l-5.834-1.296a2.5 2.5 0 0 1-1.957-2.44v-5.33zm9.166 7.294 5.181-1.151a.833.833 0 0 0 .653-.814v-5.33h-3.334a.833.833 0 0 1-.722-.417l-1.778-3.09v10.802zm.806-12.743 4.821 1.071c.269.06.49.249.593.504l.883 2.207h-4.12l-2.177-3.782z" fill="#293644"/>
    </g>
    <defs>
        <clipPath id="xtcwtut7ya">
            <path fill="#fff" d="M0 0h20v20H0z"/>
        </clipPath>
    </defs>
</svg>
