<svg width="20" height="20" viewBox="0 0 20 20" fill="none" xmlns="http://www.w3.org/2000/svg">
    <path fill-rule="evenodd" clip-rule="evenodd" d="M2.516 3.697a.12.12 0 0 0-.016.053c0 .004 0 .02.016.053a.64.64 0 0 0 .128.164c.153.15.415.324.808.487.78.325 1.916.546 3.215.546 1.298 0 2.434-.22 3.215-.546.392-.163.655-.337.807-.487a.64.64 0 0 0 .128-.164.12.12 0 0 0 .016-.053c0-.004 0-.02-.016-.053a.64.64 0 0 0-.128-.164c-.152-.15-.415-.324-.807-.487-.78-.325-1.917-.546-3.215-.546-1.299 0-2.435.22-3.215.546-.393.163-.655.337-.808.487a.64.64 0 0 0-.128.164zm8.317 2.155a5.78 5.78 0 0 1-.31.14c-1.03.43-2.393.675-3.856.675-1.464 0-2.827-.246-3.856-.675a5.813 5.813 0 0 1-.311-.14v1.231c0 .005 0 .02.016.053a.64.64 0 0 0 .128.165c.153.15.415.323.808.486.78.326 1.916.546 3.215.546 1.298 0 2.434-.22 3.215-.546.392-.163.655-.337.807-.486a.64.64 0 0 0 .128-.165.12.12 0 0 0 .016-.053v-1.23zm0 3.334c-.1.05-.205.096-.31.14-1.03.428-2.393.674-3.856.674-1.464 0-2.827-.246-3.856-.674a5.836 5.836 0 0 1-.311-.14v1.23c0 .005 0 .02.016.053a.64.64 0 0 0 .128.165c.153.15.415.323.808.487.78.325 1.916.546 3.215.546.495 0 .97-.033 1.412-.091.34-.357.791-.634 1.27-.846.438-.195.94-.354 1.484-.473V9.186zm1.667.84V3.75c0-.578-.285-1.053-.641-1.405-.354-.348-.824-.624-1.336-.837-1.03-.43-2.393-.675-3.856-.675-1.464 0-2.827.246-3.856.675-.513.213-.982.489-1.336.837-.357.352-.642.827-.642 1.405v10c0 .578.285 1.053.642 1.405.354.348.823.624 1.336.837 1.029.43 2.392.675 3.856.675.298 0 .59-.01.877-.03.092.406.324.748.597 1.018.354.348.824.624 1.336.837 1.03.43 2.393.675 3.856.675 1.464 0 2.827-.246 3.856-.675.513-.213.982-.489 1.336-.837.357-.352.642-.827.642-1.405v-3.333c0-.578-.285-1.053-.642-1.405-.354-.348-.823-.624-1.336-.838-1.029-.428-2.392-.674-3.856-.674-.283 0-.56.01-.833.027zm5 4.993v1.231c0 .004 0 .02-.016.052a.636.636 0 0 1-.128.165c-.153.15-.416.324-.808.487-.78.325-1.916.546-3.215.546-1.298 0-2.434-.22-3.215-.546-.392-.163-.655-.337-.807-.487a.636.636 0 0 1-.128-.165.12.12 0 0 1-.016-.052v-1.23c.1.048.205.095.31.139 1.03.429 2.393.674 3.856.674 1.464 0 2.827-.245 3.856-.674.106-.044.21-.09.311-.14zm-10-1.713v1.663c-.27.02-.548.031-.833.031-1.299 0-2.435-.22-3.215-.546-.393-.164-.655-.337-.808-.487a.637.637 0 0 1-.128-.165.12.12 0 0 1-.016-.052v-1.23c.101.048.205.095.31.139 1.03.429 2.393.674 3.857.674.282 0 .56-.009.833-.027zm1.667-.39c0 .005 0 .02.016.053a.64.64 0 0 0 .128.165c.152.15.415.323.807.487.78.325 1.917.546 3.215.546 1.299 0 2.435-.221 3.215-.546.393-.164.655-.337.808-.487a.64.64 0 0 0 .128-.165.12.12 0 0 0 .016-.052c0-.005 0-.02-.016-.053a.638.638 0 0 0-.128-.165c-.153-.15-.416-.323-.808-.486-.78-.325-1.916-.546-3.215-.546-.545 0-1.065.039-1.545.11-.705.103-1.306.273-1.763.476-.475.21-.72.423-.815.565-.044.065-.043.095-.043.099z" fill="#293644"/>
</svg>
