<svg width="20" height="20" viewBox="0 0 20 20" fill="none" xmlns="http://www.w3.org/2000/svg">
<path fill-rule="evenodd" clip-rule="evenodd" d="M8.10022 0.939083C9.09808 -0.227579 10.902 -0.227578 11.8999 0.939083L12.3253 1.43639C12.5287 1.6742 12.8482 1.77801 13.1525 1.70517L13.7889 1.55287C15.282 1.19557 16.7413 2.25586 16.8629 3.78626L16.9148 4.43862C16.9395 4.75056 17.137 5.02233 17.426 5.14229L18.0304 5.39317C19.4483 5.9817 20.0057 7.69729 19.2046 9.00683L18.8631 9.56508C18.6997 9.832 18.6997 10.1679 18.863 10.4349L19.2046 10.9931C20.0057 12.3027 19.4483 14.0182 18.0304 14.6068L17.426 14.8577C17.137 14.9777 16.9395 15.2494 16.9148 15.5613L16.8629 16.2137C16.7413 17.7441 15.282 18.8044 13.7889 18.4471L13.1525 18.2948C12.8482 18.222 12.5287 18.3257 12.3253 18.5636L11.8999 19.0609C10.902 20.2276 9.09808 20.2276 8.10022 19.0609L7.67485 18.5636C7.47144 18.3257 7.15196 18.222 6.84762 18.2948L6.21117 18.4471C4.71812 18.8044 3.25875 17.7441 3.13718 16.2137L3.08537 15.5613C3.06058 15.2494 2.86313 14.9777 2.57411 14.8577L1.96969 14.6068C0.551768 14.0182 -0.00566106 12.3027 0.795534 10.9931L1.13706 10.4349C1.30037 10.1679 1.30037 9.832 1.13706 9.56508L0.795534 9.00683C-0.00566082 7.69729 0.551768 5.9817 1.96969 5.39317L2.57411 5.14229C2.86313 5.02233 3.06058 4.75056 3.08537 4.43862L3.13718 3.78626C3.25875 2.25586 4.71812 1.19557 6.21117 1.55287L6.84762 1.70517C7.15196 1.77801 7.47144 1.6742 7.67485 1.43639L8.10022 0.939083ZM10.6333 2.02242C10.3007 1.63353 9.69942 1.63353 9.36675 2.02242L8.94142 2.51972C8.33119 3.23314 7.37273 3.54457 6.45972 3.32607L5.82328 3.17377C5.3256 3.05467 4.83914 3.4081 4.79862 3.91823L4.7468 4.57059C4.67246 5.50642 4.0801 6.32174 3.21304 6.68162L2.60863 6.9325C2.13598 7.12868 1.95017 7.70054 2.21723 8.13707L2.55876 8.69533C3.04869 9.49608 3.04869 10.5039 2.55876 11.3047L2.21723 11.8629C1.95017 12.2994 2.13598 12.8713 2.60863 13.0675L3.21304 13.3183C4.0801 13.6782 4.67246 14.4936 4.7468 15.4294L4.79862 16.0817C4.83914 16.5919 5.3256 16.9453 5.82328 16.8262L6.45972 16.6739C7.37273 16.4554 8.33119 16.7668 8.94142 17.4802L9.36675 17.9776C9.69942 18.3664 10.3007 18.3664 10.6333 17.9776L11.0587 17.4802C11.6689 16.7668 12.6273 16.4554 13.5403 16.6739L14.1768 16.8262C14.6745 16.9453 15.1609 16.5919 15.2015 16.0817L15.2533 15.4294C15.3277 14.4936 15.92 13.6782 16.7871 13.3183L17.3915 13.0675C17.8641 12.8713 18.0499 12.2994 17.7828 11.8629L17.4413 11.3047C16.9514 10.5039 16.9514 9.49608 17.4413 8.69533L17.7828 8.13707C18.0499 7.70054 17.8641 7.12867 17.3915 6.9325L16.7871 6.68162C15.92 6.32174 15.3277 5.50643 15.2533 4.57059L15.2015 3.91823C15.1609 3.4081 14.6745 3.05467 14.1768 3.17377L13.5403 3.32607C12.6273 3.54457 11.6689 3.23314 11.0587 2.51973L10.6333 2.02242ZM8.92267 6.91073C9.24808 7.23617 9.24808 7.76381 8.92267 8.08924L8.08931 8.92258C7.76387 9.248 7.23623 9.248 6.91079 8.92258C6.58536 8.59717 6.58536 8.06951 6.91079 7.74407L7.74412 6.91073C8.06957 6.5853 8.59717 6.5853 8.92267 6.91073ZM13.0893 6.91073C13.4147 7.23617 13.4147 7.76381 13.0893 8.08925L8.08931 13.0892C7.76387 13.4147 7.23623 13.4147 6.91079 13.0892C6.58536 12.7638 6.58536 12.2362 6.91079 11.9107L11.9108 6.91073C12.2362 6.5853 12.7638 6.5853 13.0893 6.91073ZM13.0893 11.0774C13.4147 11.4028 13.4147 11.9305 13.0893 12.2559L12.256 13.0892C11.9305 13.4147 11.4029 13.4147 11.0775 13.0892C10.752 12.7638 10.752 12.2362 11.0775 11.9107L11.9108 11.0774C12.2362 10.752 12.7638 10.752 13.0893 11.0774Z" fill="white"/>
</svg>
