<svg width="20" height="20" viewBox="0 0 20 20" fill="none" xmlns="http://www.w3.org/2000/svg">
<path fill-rule="evenodd" clip-rule="evenodd" d="M2.51622 3.69748C2.5002 3.73011 2.49998 3.74559 2.49998 3.75C2.49998 3.75441 2.5002 3.76988 2.51622 3.80252C2.53373 3.83815 2.57068 3.89466 2.64439 3.96726C2.79655 4.11716 3.05949 4.29051 3.45162 4.45391C4.23226 4.77917 5.36846 5 6.66665 5C7.96484 5 9.10106 4.77917 9.88165 4.45391C10.2738 4.29051 10.5367 4.11716 10.6889 3.96726C10.7626 3.89466 10.7996 3.83815 10.8171 3.80252C10.8331 3.76988 10.8333 3.75441 10.8333 3.75C10.8333 3.74559 10.8331 3.73011 10.8171 3.69748C10.7996 3.66185 10.7626 3.60534 10.6889 3.53273C10.5367 3.38283 10.2738 3.20948 9.88165 3.04609C9.10106 2.72082 7.96484 2.5 6.66665 2.5C5.36846 2.5 4.23226 2.72082 3.45162 3.04609C3.05949 3.20948 2.79655 3.38283 2.64439 3.53273C2.57068 3.60534 2.53373 3.66185 2.51622 3.69748ZM10.8333 5.8524C10.7321 5.90175 10.6283 5.94837 10.5227 5.99236C9.49365 6.42112 8.12988 6.66666 6.66665 6.66666C5.20341 6.66666 3.8396 6.42112 2.8106 5.99236C2.70501 5.94837 2.60126 5.90175 2.49998 5.8524V7.08333C2.49998 7.08774 2.5002 7.10321 2.51622 7.13585C2.53373 7.17148 2.57068 7.22799 2.64439 7.3006C2.79655 7.4505 3.05949 7.62385 3.45162 7.78724C4.23226 8.11251 5.36846 8.33333 6.66665 8.33333C7.96483 8.33333 9.10106 8.11251 9.88165 7.78724C10.2738 7.62385 10.5367 7.4505 10.6889 7.3006C10.7626 7.22799 10.7996 7.17148 10.8171 7.13585C10.8331 7.10321 10.8333 7.08774 10.8333 7.08333V5.8524ZM10.8333 9.18575C10.7321 9.23508 10.6283 9.28166 10.5227 9.32566C9.49365 9.75441 8.12988 10 6.66665 10C5.20341 10 3.8396 9.75441 2.8106 9.32566C2.70501 9.28166 2.60126 9.23508 2.49998 9.18575V10.4167C2.49998 10.4211 2.5002 10.4366 2.51622 10.4692C2.53373 10.5048 2.57068 10.5613 2.64439 10.6339C2.79655 10.7838 3.05949 10.9572 3.45162 11.1206C4.23226 11.4458 5.36846 11.6667 6.66665 11.6667C7.16202 11.6667 7.63673 11.6345 8.07894 11.5757C8.41806 11.2189 8.87048 10.9419 9.34831 10.7297C9.78748 10.5347 10.2896 10.376 10.8333 10.257V9.18575ZM12.5 10.0269V3.75C12.5 3.17206 12.2153 2.6969 11.8586 2.34542C11.5046 1.99682 11.0354 1.72125 10.5227 1.50763C9.49365 1.07887 8.12988 0.833332 6.66665 0.833332C5.20341 0.833332 3.8396 1.07887 2.8106 1.50763C2.29791 1.72125 1.82861 1.99682 1.47475 2.34542C1.11795 2.6969 0.833313 3.17206 0.833313 3.75V13.75C0.833313 14.3279 1.11795 14.8031 1.47475 15.1546C1.82861 15.5032 2.29791 15.7787 2.8106 15.9923C3.8396 16.4211 5.20341 16.6667 6.66665 16.6667C6.9646 16.6667 7.25754 16.6565 7.54362 16.6368C7.63649 17.0426 7.86772 17.385 8.14142 17.6546C8.49531 18.0032 8.96456 18.2787 9.47723 18.4923C10.5063 18.9211 11.8701 19.1667 13.3333 19.1667C14.7966 19.1667 16.1603 18.9211 17.1894 18.4923C17.7021 18.2787 18.1713 18.0032 18.5252 17.6546C18.882 17.3031 19.1666 16.8279 19.1666 16.25V12.9167C19.1666 12.3387 18.882 11.8636 18.5252 11.5121C18.1713 11.1635 17.7021 10.8879 17.1894 10.6743C16.1603 10.2456 14.7966 10 13.3333 10C13.0505 10 12.7722 10.0092 12.5 10.0269ZM17.5 15.0191V16.25C17.5 16.2544 17.4997 16.2699 17.4837 16.3025C17.4662 16.3382 17.4293 16.3947 17.3556 16.4672C17.2034 16.6172 16.9405 16.7905 16.5483 16.9539C15.7677 17.2792 14.6315 17.5 13.3333 17.5C12.0351 17.5 10.8989 17.2792 10.1183 16.9539C9.72615 16.7905 9.46323 16.6172 9.31106 16.4672C9.23731 16.3947 9.2004 16.3382 9.1829 16.3025C9.1669 16.2699 9.16665 16.2544 9.16665 16.25V15.0191C9.2679 15.0684 9.37165 15.115 9.47723 15.159C10.5063 15.5877 11.8701 15.8333 13.3333 15.8333C14.7966 15.8333 16.1603 15.5877 17.1894 15.159C17.295 15.115 17.3987 15.0684 17.5 15.0191ZM7.49998 13.3064V14.969C7.23051 14.9893 6.95198 15 6.66665 15C5.36846 15 4.23226 14.7792 3.45162 14.4539C3.05949 14.2905 2.79655 14.1172 2.64439 13.9672C2.57068 13.8947 2.53373 13.8382 2.51622 13.8025C2.5002 13.7699 2.49998 13.7544 2.49998 13.75V12.5191C2.60126 12.5684 2.70501 12.615 2.8106 12.659C3.8396 13.0877 5.20341 13.3333 6.66665 13.3333C6.94943 13.3333 7.22772 13.3242 7.49998 13.3064ZM9.16665 12.9167C9.16665 12.9211 9.1669 12.9366 9.1829 12.9692C9.2004 13.0048 9.23731 13.0613 9.31106 13.1339C9.46323 13.2838 9.72615 13.4572 10.1183 13.6206C10.8989 13.9458 12.0351 14.1667 13.3333 14.1667C14.6315 14.1667 15.7677 13.9458 16.5483 13.6206C16.9405 13.4572 17.2034 13.2838 17.3556 13.1339C17.4293 13.0613 17.4662 13.0048 17.4837 12.9692C17.4997 12.9366 17.5 12.9211 17.5 12.9167C17.5 12.9122 17.4997 12.8967 17.4837 12.8642C17.4662 12.8285 17.4293 12.772 17.3556 12.6994C17.2034 12.5495 16.9405 12.3762 16.5483 12.2127C15.7677 11.8875 14.6315 11.6667 13.3333 11.6667C12.7881 11.6667 12.2678 11.7057 11.7881 11.7763C11.0834 11.8801 10.4825 12.0497 10.0247 12.253C9.55023 12.4637 9.3054 12.6764 9.20998 12.818C9.1664 12.8827 9.16665 12.9129 9.16665 12.9167Z" fill="white"/>
</svg>
