<svg width="20" height="20" viewBox="0 0 20 20" fill="none" xmlns="http://www.w3.org/2000/svg">
<g clip-path="url(#clip0_21_9165)">
<path fill-rule="evenodd" clip-rule="evenodd" d="M8.36117 3.71783L3.53986 4.78923C3.27108 4.84896 3.04916 5.03759 2.9469 5.29323L2.0642 7.49998H6.18475L8.36117 3.71783ZM9.16667 5.65962V16.4612L3.98589 15.3098C3.60462 15.2251 3.33333 14.8869 3.33333 14.4963V9.16667H6.66667C6.96482 9.16667 7.24025 9.00733 7.38896 8.74892L9.16667 5.65962ZM1.66667 9.16667H0.833333C0.556817 9.16667 0.298306 9.0295 0.143281 8.8005C-0.0117437 8.5715 -0.0430902 8.28057 0.0596067 8.02382L1.39944 4.67424C1.7062 3.90733 2.37198 3.34144 3.1783 3.16226L9.45767 1.76684C9.63625 1.72715 9.81817 1.70731 10 1.70731C10.1818 1.70731 10.3637 1.72715 10.5423 1.76684L16.8217 3.16226C17.628 3.34144 18.2938 3.90733 18.6006 4.67425L19.9404 8.02382C20.0431 8.28057 20.0117 8.5715 19.8567 8.8005C19.7017 9.0295 19.4432 9.16667 19.1667 9.16667H18.3333V14.4963C18.3333 15.6681 17.5195 16.6827 16.3757 16.9368L10.5423 18.2332C10.3637 18.2728 10.1818 18.2927 10 18.2927C9.81817 18.2927 9.63625 18.2728 9.45767 18.2332L3.62434 16.9368C2.4805 16.6827 1.66667 15.6681 1.66667 14.4963V9.16667ZM10.8333 16.4612L16.0141 15.3098C16.3954 15.2251 16.6667 14.8869 16.6667 14.4963V9.16667H13.3333C13.0352 9.16667 12.7597 9.00733 12.6111 8.74892L10.8333 5.65962V16.4612ZM11.6388 3.71783L16.4602 4.78923C16.7289 4.84896 16.9508 5.03759 17.0531 5.29323L17.9358 7.49998H13.8153L11.6388 3.71783Z" fill="white"/>
</g>
<defs>
<clipPath id="clip0_21_9165">
<rect width="20" height="20" fill="white"/>
</clipPath>
</defs>
</svg>
