<svg width="36" height="36" viewBox="0 0 36 36" fill="none" xmlns="http://www.w3.org/2000/svg">
    <circle cx="18" cy="18" r="17.5" fill="#fff" stroke="#293644"/>
    <path fill-rule="evenodd" clip-rule="evenodd" d="M22.833 10.5a1.667 1.667 0 1 0 0 3.333 1.667 1.667 0 0 0 0-3.333zM19.5 12.167a3.333 3.333 0 1 1 .82 2.188l-5.893 2.947a3.345 3.345 0 0 1 0 1.396l5.892 2.947a3.333 3.333 0 1 1-.746 1.49l-5.892-2.946a3.333 3.333 0 1 1 0-4.377l5.892-2.947a3.352 3.352 0 0 1-.073-.698zm-8.333 4.166a1.667 1.667 0 1 0 0 3.334 1.667 1.667 0 0 0 0-3.334zm11.666 5.834a1.667 1.667 0 1 0-.001 3.333 1.667 1.667 0 0 0 .001-3.333z" fill="#293644"/>
</svg>
