<svg width="16" height="16" viewBox="0 0 16 16" fill="none" xmlns="http://www.w3.org/2000/svg">
    <path fill-rule="evenodd" clip-rule="evenodd" d="M13.502 3.778a3.504 3.504 0 0 0-4.667-.259L8 4.187l-.835-.668a3.505 3.505 0 0 0-4.667.259C1.212 5.064 1.134 7.096 2.34 8.409c1.05 1.142 2.27 2.408 3.37 3.383.552.49 1.058.892 1.485 1.168.462.298.72.373.806.373.087 0 .344-.075.806-.373.427-.276.933-.679 1.484-1.168 1.1-.975 2.322-2.24 3.37-3.383 1.206-1.313 1.128-3.345-.158-4.631zm-5.5-1.3a4.838 4.838 0 0 1 6.443.357c1.764 1.765 1.91 4.61.198 6.476-1.06 1.154-2.317 2.458-3.468 3.479-.574.51-1.137.961-1.645 1.29-.475.306-1.02.587-1.53.587s-1.055-.28-1.53-.587c-.508-.329-1.07-.78-1.645-1.29-1.15-1.02-2.409-2.325-3.468-3.48-1.713-1.865-1.566-4.71.198-6.475a4.838 4.838 0 0 1 6.443-.357L8 2.48l.002-.002z" fill="#293644"/>
</svg>
