<svg width="36" height="36" viewBox="0 0 36 36" fill="none" xmlns="http://www.w3.org/2000/svg">
    <path fill-rule="evenodd" clip-rule="evenodd" d="M18.416 2C8.796 2 1 8.164 1 15.768c0 4.95 3.303 9.287 8.261 11.714a851.577 851.577 0 0 0-1.51 5.69c-.235.948.348.935.73.68.3-.2 4.772-3.24 6.702-4.553 1.047.156 2.128.239 3.233.239 9.618 0 17.415-6.166 17.415-13.77C35.831 8.164 28.034 2 18.416 2zm-7.009 9.713H6.315a.866.866 0 1 0 0 1.733H7.97v6.1a.85.85 0 0 0 .845.846H9a.844.844 0 0 0 .844-.845v-6.101h1.563a.866.866 0 1 0 0-1.733zm12.24 7.05h-2.368V12.53a.94.94 0 0 0-1.88 0v6.717c0 .052.007.101.015.15a.785.785 0 0 0 .772.937h3.46a.786.786 0 0 0 0-1.573zm7.568.286-2.639-3.467 2.384-2.386a.83.83 0 0 0 .18-.901.828.828 0 0 0-1.35-.268l-2.952 2.953V12.53a.94.94 0 0 0-1.88 0v6.923a.94.94 0 1 0 1.88 0v-2.136l.537-.535 2.496 3.275a.84.84 0 0 0 1.344-1.01zm-17.462-2.023 1.168-3.331c.013 0 .024.004.038.004l1.165 3.327h-2.37zm4.943 2.248-2.538-6.944-.009-.008c-.162-.423-.63-.731-1.19-.731-.619 0-1.131.379-1.232.874a1.132 1.132 0 0 0-.05.115l-2.496 6.693a.841.841 0 1 0 1.588.557l.432-1.232h3.474l.431 1.232a.842.842 0 0 0 1.589-.557z" fill="#fff"/>
</svg>
