<svg width="36" height="36" viewBox="0 0 36 36" fill="none" xmlns="http://www.w3.org/2000/svg">
    <circle cx="18" cy="18" r="18" fill="#29B6F6"/>
    <path fill-rule="evenodd" clip-rule="evenodd" d="M24.456 13.268c-1.448-1.525-3.752-1.66-5.35-.312l-.957.806-.957-.806c-1.598-1.347-3.903-1.213-5.35.312-1.474 1.553-1.564 4.008-.182 5.593 1.202 1.38 2.603 2.908 3.864 4.086.631.59 1.211 1.076 1.701 1.41.53.36.824.451.924.451.1 0 .395-.09.924-.451.49-.334 1.07-.82 1.701-1.41 1.261-1.178 2.662-2.706 3.864-4.086 1.381-1.585 1.292-4.04-.182-5.593zm-6.305-1.57c2.206-1.86 5.387-1.674 7.386.431 2.023 2.132 2.19 5.568.227 7.82-1.214 1.394-2.656 2.97-3.976 4.203-.658.615-1.303 1.16-1.886 1.557-.543.37-1.17.71-1.753.71-.584 0-1.21-.34-1.754-.71-.582-.396-1.227-.942-1.886-1.557-1.319-1.233-2.76-2.809-3.975-4.202-1.964-2.253-1.796-5.69.227-7.82 1.998-2.106 5.18-2.291 7.386-.432l.002.002.002-.002z" fill="#fff"/>
</svg>
