<svg width="44" height="44" viewBox="0 0 44 44" fill="none" xmlns="http://www.w3.org/2000/svg">
    <circle cx="22" cy="22" r="22" fill="#29B6F6"/>
    <g clip-path="url(#v2r8pa7bxa)" stroke="#fff" stroke-width="1.5" stroke-linecap="round" stroke-linejoin="round">
        <path d="M11.935 17.07c0 1.441 6.428-.292 6.428-.292l.143-.038M22.704 32.66c-3.285 2.778-6.897-1.033-9.309-4.512a2.875 2.875 0 0 0-2.659-1.071M18.767 28.772l4.146 4.092c.13-.102 3.037-.217 2.933-2.448"/>
        <path d="m21.4 26.095 4.746 4.614c.13-.114 2.685-.267 2.698-2.447"/>
        <path d="M23.669 18.371c.625.434 7.978 5.532 7.94 8.17-.027 1.861-2.543 1.95-2.543 1.95l-4.224-4.32"/>
        <path d="m29.431 14.84-.26-.114a13.112 13.112 0 0 0-7.184-1.097c-.978.14-2.073 1.39-2.725 2.116a9.735 9.735 0 0 0-1.903 3.314 1.284 1.284 0 0 0 .834 1.62c.065.025.13.037.209.05a4.13 4.13 0 0 0 3.102-.74l2.908-2.255M31.712 14.904l3.977 11.574M12.287 15.988 8.311 27.56M35.167 24.974l-3.69.905"/>
    </g>
    <defs>
        <clipPath id="v2r8pa7bxa">
            <path fill="#fff" transform="translate(7.333 12.572)" d="M0 0h29.333v22H0z"/>
        </clipPath>
    </defs>
</svg>
