<svg width="18" height="12" viewBox="0 0 18 12" fill="none" xmlns="http://www.w3.org/2000/svg">
    <path d="M8.993 7.804c.986 0 1.784-.807 1.784-1.803 0-.995-.798-1.802-1.784-1.802-.985 0-1.784.807-1.784 1.802 0 .996.799 1.803 1.784 1.803zM5.506 9.454a.887.887 0 0 1-.63-.266A4.531 4.531 0 0 1 3.572 6c0-1.195.47-2.34 1.306-3.186a.892.892 0 0 1 .63-.264.885.885 0 0 1 .632.264.903.903 0 0 1 .193.983.903.903 0 0 1-.193.292 2.719 2.719 0 0 0-.783 1.911c0 .717.282 1.404.783 1.911a.904.904 0 0 1 .196.986.885.885 0 0 1-.829.556z" fill="#fff"/>
    <path d="M2.986 12a.885.885 0 0 1-.634-.261 8.119 8.119 0 0 1-1.74-2.633 8.186 8.186 0 0 1 0-6.21A8.119 8.119 0 0 1 2.351.264a.888.888 0 0 1 1.262 0 .907.907 0 0 1 0 1.276 6.314 6.314 0 0 0-1.353 2.047 6.367 6.367 0 0 0 0 4.83 6.314 6.314 0 0 0 1.353 2.046.903.903 0 0 1 .194.983.887.887 0 0 1-.822.554zM12.494 9.454a.886.886 0 0 1-.829-.556.91.91 0 0 1 .196-.986 2.719 2.719 0 0 0 .783-1.91c0-.717-.282-1.405-.783-1.912a.903.903 0 0 1-.193-.982.903.903 0 0 1 .483-.489.885.885 0 0 1 .972.196 4.531 4.531 0 0 1 1.306 3.186c0 1.195-.47 2.342-1.306 3.187a.887.887 0 0 1-.629.266z" fill="#fff"/>
    <path d="M15.014 12a.887.887 0 0 1-.822-.554.91.91 0 0 1 .194-.983 6.313 6.313 0 0 0 1.353-2.047 6.366 6.366 0 0 0-1.354-6.876.907.907 0 0 1 0-1.276.888.888 0 0 1 1.263 0 8.12 8.12 0 0 1 1.74 2.632 8.187 8.187 0 0 1 0 6.21 8.12 8.12 0 0 1-1.74 2.633.892.892 0 0 1-.634.261z" fill="#fff"/>
</svg>
