<svg width="56" height="56" viewBox="0 0 56 56" fill="none" xmlns="http://www.w3.org/2000/svg">
    <path d="M19.217 21.12h17.74L50.368 0h-17.74l-13.41 21.12z" fill="#CA472C"/>
    <path opacity=".25" d="M19.217 21.12h17.74l1.598-2.515L30.92 2.68 19.217 21.12z" fill="url(#a)"/>
    <path d="M35.12 35.427H20.88a4.334 4.334 0 0 1-4.332-4.332v-8.17a4.334 4.334 0 0 1 4.332-4.331H35.13a4.334 4.334 0 0 1 4.331 4.331v8.17a4.344 4.344 0 0 1-4.342 4.332zM20.88 20.08a2.845 2.845 0 0 0-2.844 2.844v8.17a2.845 2.845 0 0 0 2.844 2.844H35.13a2.845 2.845 0 0 0 2.844-2.844v-8.17a2.845 2.845 0 0 0-2.844-2.844H20.88z" fill="#FED555"/>
    <path d="M28 53.91c8.258 0 14.952-6.693 14.952-14.95 0-8.258-6.694-14.952-14.952-14.952s-14.952 6.694-14.952 14.951c0 8.258 6.694 14.952 14.952 14.952z" fill="#FBB040"/>
    <path d="M28 24.019c8.258 0 14.952 6.694 14.952 14.951 0 8.258-6.694 14.94-14.952 14.94s-14.952-6.693-14.952-14.95c0-8.259 6.694-14.941 14.952-14.941zm0-2.1c-9.395 0-17.04 7.645-17.04 17.04C10.96 48.355 18.604 56 28 56s17.04-7.645 17.04-17.04c0-9.396-7.645-17.041-17.04-17.041z" fill="#FED555"/>
    <path d="M36.783 21.12h-17.74L5.632 0h17.74l13.41 21.12z" fill="#DD553D"/>
    <path d="M26.14 21.12 12.896 0h-2.822L23.32 21.12h2.822zM32.419 21.12 19.173 0h-2.821l13.245 21.12h2.822z" fill="#E6E7E8"/>
    <path opacity=".5" d="M28 51.22c-6.76 0-12.26-5.501-12.26-12.26 0-6.76 5.5-12.25 12.26-12.25s12.26 5.5 12.26 12.26S34.76 51.22 28 51.22zm0-23.92c-6.431 0-11.66 5.228-11.66 11.66 0 6.43 5.229 11.659 11.66 11.659s11.66-5.228 11.66-11.66C39.66 32.53 34.43 27.3 28 27.3z" fill="#DF8F26"/>
    <path d="m35.35 27.038.492 2.296 2.308.503-2.308.493-.492 2.297-.492-2.297-2.297-.492 2.297-.504.492-2.296zM27.812 31.554c-3.006 0-5.112 2.016-5.112 4.806h3.222c0-1.044.594-2.07 1.872-2.07 1.224 0 1.944.666 1.944 1.746 0 1.116-.792 1.836-2.124 1.836h-1.458v2.664h1.458c1.53 0 2.556.648 2.556 1.872 0 1.08-.9 1.818-2.25 1.818-1.368 0-2.106-.702-2.232-1.872h-3.222c.234 2.826 2.232 4.626 5.454 4.626 3.042 0 5.436-1.764 5.436-4.59 0-1.89-1.512-3.06-2.862-3.276 1.224-.216 2.466-1.458 2.466-3.15 0-2.628-2.106-4.41-5.148-4.41z" fill="#fff"/>
    <defs>
        <linearGradient id="a" x1="28.534" y1="20.327" x2="39.116" y2="3.842" gradientUnits="userSpaceOnUse">
            <stop offset=".207" stop-color="#fff" stop-opacity="0"/>
            <stop offset="1"/>
        </linearGradient>
    </defs>
</svg>
