<svg width="24" height="24" viewBox="0 0 24 24" fill="none" xmlns="http://www.w3.org/2000/svg">
    <path d="m13.769 12.13 5.888-5.893a1.163 1.163 0 0 0 0-1.65 1.16 1.16 0 0 0-.815-.342c-.31 0-.604.114-.816.343l-5.905 5.894-6.133-6.14A1.16 1.16 0 0 0 5.172 4c-.31 0-.603.114-.815.343a1.15 1.15 0 0 0-.016 1.649l6.133 6.139-5.889 5.893a1.163 1.163 0 0 0-.342.817c0 .31.114.604.342.816.212.212.506.343.816.343.31 0 .603-.114.815-.343l5.889-5.894 5.66 5.666c.212.212.506.342.816.342.31 0 .603-.114.816-.342.212-.213.342-.507.342-.817 0-.31-.114-.604-.343-.816L13.77 12.13z" fill="#293644"/>
</svg>
