<svg width="16" height="16" viewBox="0 0 16 16" fill="none" xmlns="http://www.w3.org/2000/svg">
    <path fill-rule="evenodd" clip-rule="evenodd" d="M8 2c.368 0 .667.298.667.667v5.057l.862-.862a.667.667 0 1 1 .942.943l-2 2a.667.667 0 0 1-.942 0l-2-2a.667.667 0 0 1 .942-.943l.862.862V2.667C7.333 2.298 7.632 2 8 2zM.667 8.667c.368 0 .666.298.666.666V12c0 .368.299.667.667.667h12a.667.667 0 0 0 .667-.667V9.333a.667.667 0 1 1 1.333 0V12a2 2 0 0 1-2 2H2a2 2 0 0 1-2-2V9.333c0-.368.298-.666.667-.666z" fill="#293644"/>
</svg>
