<svg width="20" height="20" viewBox="0 0 20 20" fill="none" xmlns="http://www.w3.org/2000/svg">
    <path opacity=".2" fill-rule="evenodd" clip-rule="evenodd" d="M10 0C4.477 0 0 4.477 0 10s4.477 10 10 10 10-4.477 10-10S15.523 0 10 0zm2.249 16.072c-.179.148-.38.28-.603.396-.224.116-.47.208-.737.278-.267.07-.921.104-1.243.104-.677 0-1.197-.16-1.559-.482-.362-.322-.722-.77-.722-1.344 0-.234.021-.514.06-.83.017 0 .733-4.136.733-4.136a4.89 4.89 0 0 0 .047-.234l.039-.23c.011-.073.02-.136.026-.188a1.216 1.216 0 0 0-.043-.505.446.446 0 0 0-.164-.226.669.669 0 0 0-.288-.104 2.977 2.977 0 0 0-.427-.026s-.596-.1-.596-.503c0-.526.803-.446.76-.446h3.55c1.021 0 .472 1.784.619 1.09-.354 1.678-.813 4.39-.813 4.39-.07.324-.127.47-.173.751a4.945 4.945 0 0 0-.069.796c0 .261.053.461.16.6.106.14.257.21.452.21.184 0 .353-.035.508-.105.272-.122.81-.594 1.026-.288.279.397-.284.816-.543 1.032zM7.453 14.11l-.008.085a.611.611 0 0 1 .008-.085zm2.819-7.324a1.81 1.81 0 0 1-1.8-1.818 1.81 1.81 0 0 1 1.8-1.818c.994 0 1.8.814 1.8 1.818a1.81 1.81 0 0 1-1.8 1.818z" fill="#293644"/>
</svg>
