<svg width="24" height="24" viewBox="0 0 24 24" fill="none" xmlns="http://www.w3.org/2000/svg">
    <path fill-rule="evenodd" clip-rule="evenodd" d="M12 2a8 8 0 1 0 0 16 8 8 0 0 0 0-16zM2 10C2 4.477 6.477 0 12 0s10 4.477 10 10a9.975 9.975 0 0 1-3.228 7.358l1.52 1.52c1.89 1.89.552 5.122-2.12 5.122H5.828c-2.672 0-4.01-3.231-2.12-5.121l1.52-1.521A9.975 9.975 0 0 1 2 10zm4.844 8.57-1.723 1.723c-.63.63-.183 1.707.707 1.707h12.344c.89 0 1.337-1.077.707-1.707l-1.723-1.723A9.958 9.958 0 0 1 12 20a9.957 9.957 0 0 1-5.156-1.43zM12 6a4 4 0 0 0-4 4 1 1 0 1 1-2 0 6 6 0 0 1 6-6 1 1 0 1 1 0 2zm-2 4a2 2 0 1 1 4 0 2 2 0 0 1-4 0z" fill="#293644"/>
</svg>
