<svg width="20" height="20" viewBox="0 0 20 20" fill="none" xmlns="http://www.w3.org/2000/svg">
    <path fill-rule="evenodd" clip-rule="evenodd" d="M15.833 2.5a1.667 1.667 0 1 0 0 3.333 1.667 1.667 0 0 0 0-3.333zM12.5 4.167a3.333 3.333 0 1 1 .82 2.188L7.425 9.302a3.343 3.343 0 0 1 0 1.396l5.893 2.947a3.333 3.333 0 1 1-.746 1.49L6.681 12.19a3.333 3.333 0 1 1 0-4.377l5.892-2.947a3.352 3.352 0 0 1-.073-.698zM4.167 8.333a1.667 1.667 0 1 0 0 3.334 1.667 1.667 0 0 0 0-3.334zm11.666 5.834a1.667 1.667 0 1 0-.001 3.333 1.667 1.667 0 0 0 .001-3.333z" fill="#293644"/>
</svg>
