<svg width="30" height="30" viewBox="0 0 30 30" fill="none" xmlns="http://www.w3.org/2000/svg">
    <path fill-rule="evenodd" clip-rule="evenodd" d="M8.068 7.298c.365-2.204 3.05-3.07 4.619-1.49L15 8.137l2.314-2.33c1.568-1.58 4.253-.714 4.618 1.49l.202 1.219h.139A2.737 2.737 0 0 1 25 11.264v2.747c0 .678-.366 1.27-.91 1.587v6.655A2.737 2.737 0 0 1 21.365 25H8.636a2.737 2.737 0 0 1-2.727-2.747v-6.655A1.833 1.833 0 0 1 5 14.01v-2.747a2.737 2.737 0 0 1 2.727-2.747h.14l.2-1.219zM9.71 8.517h3.095l-1.404-1.415a.907.907 0 0 0-1.54.497l-.151.918zm4.38 1.832v3.662H6.819v-2.747c0-.506.407-.915.91-.915h6.363zm1.82 3.662V10.35h6.363c.502 0 .909.41.909.915v2.747h-7.273zm-1.82 1.832H7.728v6.41c0 .506.407.916.91.916h5.454v-7.326zm1.82 7.326v-7.326h6.363v6.41a.912.912 0 0 1-.91.916H15.91zm1.285-14.652h3.096l-.152-.918a.907.907 0 0 0-1.54-.497l-1.404 1.415z" fill="#293644"/>
</svg>
