<svg width="20" height="20" viewBox="0 0 20 20" fill="none" xmlns="http://www.w3.org/2000/svg">
    <path fill-rule="evenodd" clip-rule="evenodd" d="M8.1.94a2.5 2.5 0 0 1 3.8 0l.425.496a.833.833 0 0 0 .828.27l.636-.153a2.5 2.5 0 0 1 3.074 2.233l.052.653a.833.833 0 0 0 .511.703l.604.251a2.5 2.5 0 0 1 1.175 3.614l-.342.558a.833.833 0 0 0 0 .87l.342.558a2.5 2.5 0 0 1-1.175 3.614l-.604.25a.833.833 0 0 0-.511.704l-.052.653a2.5 2.5 0 0 1-3.074 2.233l-.636-.152a.833.833 0 0 0-.828.269l-.425.497a2.5 2.5 0 0 1-3.8 0l-.425-.497a.833.833 0 0 0-.827-.27l-.637.153a2.5 2.5 0 0 1-3.074-2.233l-.052-.653a.833.833 0 0 0-.51-.703l-.605-.251a2.5 2.5 0 0 1-1.174-3.614l.341-.558a.833.833 0 0 0 0-.87l-.341-.558A2.5 2.5 0 0 1 1.97 5.393l.604-.25a.833.833 0 0 0 .511-.704l.052-.653a2.5 2.5 0 0 1 3.074-2.233l.637.152a.833.833 0 0 0 .827-.269L8.1.94zm2.533 1.082a.833.833 0 0 0-1.266 0l-.426.498a2.5 2.5 0 0 1-2.481.806l-.637-.152a.833.833 0 0 0-1.024.744l-.052.653a2.5 2.5 0 0 1-1.534 2.11l-.604.252a.833.833 0 0 0-.392 1.204l.342.558a2.5 2.5 0 0 1 0 2.61l-.342.558a.833.833 0 0 0 .392 1.205l.604.25a2.5 2.5 0 0 1 1.534 2.111l.052.653c.04.51.527.863 1.024.744l.637-.152a2.5 2.5 0 0 1 2.481.806l.426.498a.833.833 0 0 0 1.266 0l.426-.498a2.5 2.5 0 0 1 2.481-.806l.637.152a.833.833 0 0 0 1.024-.744l.052-.653a2.5 2.5 0 0 1 1.534-2.11l.605-.252a.833.833 0 0 0 .39-1.204l-.34-.558a2.5 2.5 0 0 1 0-2.61l.34-.558a.833.833 0 0 0-.39-1.205l-.605-.25a2.5 2.5 0 0 1-1.534-2.111l-.052-.653a.833.833 0 0 0-1.024-.744l-.637.152a2.5 2.5 0 0 1-2.481-.806l-.426-.498zm-1.71 4.889a.833.833 0 0 1 0 1.178l-.834.834a.833.833 0 0 1-1.178-1.179l.833-.833a.833.833 0 0 1 1.179 0zm4.166 0a.833.833 0 0 1 0 1.178l-5 5a.833.833 0 1 1-1.178-1.178l5-5a.833.833 0 0 1 1.178 0zm0 4.166a.833.833 0 0 1 0 1.179l-.833.833a.833.833 0 1 1-1.178-1.178l.833-.834a.833.833 0 0 1 1.178 0z" fill="#293644"/>
</svg>
