<svg width="36" height="36" viewBox="0 0 36 36" fill="none" xmlns="http://www.w3.org/2000/svg">
    <path fill-rule="evenodd" clip-rule="evenodd" d="M23.426 3.114a1.5 1.5 0 0 1 1.635.325l10.5 10.5a1.5 1.5 0 0 1 0 2.122l-10.5 10.5A1.5 1.5 0 0 1 22.5 25.5V21h-.75c-8.123 0-15.207 4.452-18.944 11.055a1.5 1.5 0 0 1-2.805-.751C.106 18.968 10.139 9 22.5 9V4.5a1.5 1.5 0 0 1 .926-1.386zM25.5 8.121V12h-3c-8.711 0-16.088 5.712-18.59 13.595A24.678 24.678 0 0 1 21.75 18h3.75v3.879L32.379 15 25.5 8.121z" fill="#fff"/>
</svg>
