<svg width="36" height="36" viewBox="0 0 36 36" fill="none" xmlns="http://www.w3.org/2000/svg">
    <path fill-rule="evenodd" clip-rule="evenodd" d="M15 2H3a1 1 0 0 0-1 1v12a1 1 0 0 0 1 1h12a1 1 0 0 0 1-1V3a1 1 0 0 0-1-1zm-3 10H6V6h6v6zm3 8H3a1 1 0 0 0-1 1v12a1 1 0 0 0 1 1h12a1 1 0 0 0 1-1V21a1 1 0 0 0-1-1zm-3 10H6v-6h6v6zm9-28h12a1 1 0 0 1 1 1v12a1 1 0 0 1-1 1H21a1 1 0 0 1-1-1V3a1 1 0 0 1 1-1zm3 10h6V6h-6v6zm-3 14a1 1 0 0 1-1-1v-4a1 1 0 0 1 1-1h4a1 1 0 0 1 1 1v4a1 1 0 0 1-1 1h-4zm10-6h2a1 1 0 0 1 1 1v12a1 1 0 0 1-1 1H21a1 1 0 0 1-1-1v-2a1 1 0 0 1 1-1h5v-3a1 1 0 0 1 1-1h3v-5a1 1 0 0 1 1-1z" fill="#fff"/>
</svg>
