<svg width="48" height="48" viewBox="0 0 48 48" fill="none" xmlns="http://www.w3.org/2000/svg">
    <path d="M31.442 4.974a.69.69 0 0 1 .023 0l.092.006.088.006c.033.003.066.008.1.014.027.004.055.006.083.011.035.006.072.014.107.022l.078.016.115.03.074.021.122.04.068.024c.043.016.085.033.127.051l.065.025a3.716 3.716 0 0 1 .193.09c.047.023.093.047.14.072l.055.029c.049.027.098.055.148.085l.047.028c.052.031.103.064.154.097l.043.029c.054.035.107.072.16.11l.038.027c.055.04.11.081.165.124l.032.025a7.854 7.854 0 0 1 .373.311l.024.021c.06.054.12.109.179.165l.018.018a8.075 8.075 0 0 1 .385.388l.01.01a10.402 10.402 0 0 1 .387.438l.004.005c.065.077.129.156.194.236.517.65 1.018 1.412 1.484 2.274l.089.165c0 .008-.014.021-.035.036l-6.686 6.773c.264.056.502.231.816.457l8.76 6.2-.535 7.541.377.314c-.022.448-.036.812-.043 1.049-.023.804-.11 1.337-.606 1.589-1.813.919-15.888 7.876-17.73 8.856-.357.19-.604.224-.734.224-.07 0-.106-.01-.106-.01s-.434-.106-1.075-.726c-2.798-2.665-6.126-5.301-8.735-7.68-.537-.483-.528-.63-.61-1.551l-.066-1.03.376-.182-.344-6.633c-.009-.167.019-.229.065-.229.044 0 .104.055.165.13l.107-.045c-2.345-4.702-2.795-10.166-.979-12.342.442-.516.976-.773 1.568-.802l2.167-.747c.146.02.295.057.446.102L29 5.93l.693-.493 1.085-.372c.055-.017.11-.031.166-.044l.06-.01c.037-.007.073-.015.11-.02l.077-.007.097-.008.085-.001.07-.002zm0-2.88-.112.002h.006a4.418 4.418 0 0 0-.39.02l-.034.002a3.805 3.805 0 0 0-.418.059 3.32 3.32 0 0 0-.154.029l-.03.006c-.135.03-.26.063-.38.1l-.018.006c-.041.013-.083.026-1.159.396-.287.099-.55.24-.783.413l-.303.215-14.413 4.966a2.88 2.88 0 0 0-1.17.147l-1.226.423-.636.22c-1.203.179-2.298.792-3.124 1.758a1.531 1.531 0 0 0-.022.026c-2.659 3.186-2.052 9.22-.023 14.08-.007.131-.008.267 0 .41l.277 5.349c-.23.45-.342.964-.308 1.493l.067 1.03.005.068.01.11c.108 1.23.281 2.19 1.535 3.322 1.144 1.043 2.381 2.099 3.691 3.217 1.69 1.442 3.436 2.933 4.984 4.407 1.005.969 1.876 1.312 2.333 1.433.265.07.548.105.842.105.685 0 1.388-.19 2.088-.563 1.16-.617 7.6-3.816 12.303-6.153 2.643-1.313 4.73-2.35 5.375-2.676 2.098-1.062 2.16-3.253 2.183-4.077.004-.146.015-.437.04-.995a2.877 2.877 0 0 0-.297-1.417l.452-6.369a2.88 2.88 0 0 0-1.209-2.555l-6.737-4.768 4.162-4.215a2.887 2.887 0 0 0 .606-3.47 14.802 14.802 0 0 0-.1-.188l-.005-.008a18.267 18.267 0 0 0-1.765-2.698l-.02-.025a16.16 16.16 0 0 0-.208-.253l-.016-.02c-.079-.094-.159-.187-.239-.278l-.026-.029c-.076-.085-.152-.169-.228-.25l-.015-.016a13.115 13.115 0 0 0-.23-.24l-.018-.018-.035-.035a12.45 12.45 0 0 0-.199-.194l-.033-.032a10.88 10.88 0 0 0-.237-.219l-.019-.017-.016-.014-.01-.009a22.02 22.02 0 0 0-.215-.186l-.065-.054a9.383 9.383 0 0 0-.226-.182l-.035-.027-.02-.015a13.666 13.666 0 0 0-.287-.212 7.921 7.921 0 0 0-.283-.194l-.01-.007a8.349 8.349 0 0 0-.83-.475l-.05-.024-.078-.037a6.223 6.223 0 0 0-.21-.096l-.022-.01a5.485 5.485 0 0 0-.64-.235l-.03-.008a4 4 0 0 0-.124-.035l-.036-.01-.024-.007a6.579 6.579 0 0 0-.185-.048 5.3 5.3 0 0 0-.13-.028l-.02-.004a5.08 5.08 0 0 0-.2-.04l-.013-.001a3.936 3.936 0 0 0-.16-.023 4.037 4.037 0 0 0-.407-.042 3.994 3.994 0 0 0-.294-.01z" fill="#fff"/>
    <path d="M31.442 4.974h.023l.092.006.088.006c.033.003.066.008.1.014.027.004.055.006.083.011.035.006.072.014.107.022l.078.016.115.03.074.021.121.04.069.024c.042.016.085.033.127.051l.065.025a3.712 3.712 0 0 1 .193.09c.047.023.093.047.14.072l.055.029c.049.027.098.055.148.085l.047.028c.052.031.103.064.154.097l.043.029c.054.035.107.072.16.11l.038.027c.055.04.11.081.165.124l.032.025a8.102 8.102 0 0 1 .373.311l.024.021c.06.054.12.109.179.165l.018.018a8.075 8.075 0 0 1 .394.398 10.112 10.112 0 0 1 .388.438l.004.005c.065.077.129.156.194.236.517.65 1.018 1.412 1.484 2.274l.089.165c0 .008-.014.021-.035.036l-6.686 6.773c.264.056.502.231.816.457l8.76 6.2-.535 7.541.377.314c-.022.448-.036.812-.043 1.049-.023.804-.11 1.337-.606 1.589-1.813.919-15.888 7.876-17.73 8.856-.357.19-.604.224-.734.224-.07 0-.106-.01-.106-.01s-.434-.106-1.075-.726c-2.798-2.665-6.126-5.301-8.735-7.68-.537-.483-.528-.63-.61-1.551l-.066-1.03.376-.182-.344-6.633c-.009-.167.019-.229.065-.229.044 0 .104.055.165.13l.107-.045c-2.345-4.702-2.795-10.166-.979-12.342.442-.516.976-.773 1.568-.802l2.167-.747c.146.02.295.057.446.102l15.53-5.35.693-.493 1.085-.372c.055-.017.11-.031.166-.044l.06-.01c.037-.007.073-.015.11-.02l.077-.007.097-.008.085-.001.07-.002zm0-1.44-.078.001h-.03a3.087 3.087 0 0 0-.13.004c-.04.002-.08.006-.12.01l-.019.001a1.84 1.84 0 0 0-.439.067 3.709 3.709 0 0 0-.274.072c-.03.01-.072.023-1.13.387-.146.05-.279.121-.396.21l-.494.35-14.934 5.145a4.046 4.046 0 0 0-.178-.03 1.434 1.434 0 0 0-.667.066l-1.22.42-.777.268c-.915.102-1.729.544-2.363 1.287l-.01.013c-1.436 1.72-1.555 4.354-1.402 6.261.174 2.17.788 4.509 1.748 6.688a2.07 2.07 0 0 0-.038.538l.301 5.811c-.232.278-.356.64-.332 1.017l.066 1.03.003.035.01.11c.089 1.014.177 1.58 1.07 2.385 1.122 1.023 2.353 2.073 3.656 3.186 1.707 1.456 3.471 2.963 5.05 4.466.822.795 1.479 1.022 1.723 1.082a1.9 1.9 0 0 0 .45.052c.448 0 .923-.133 1.412-.394 1.18-.627 7.63-3.831 12.34-6.171 2.64-1.312 4.725-2.347 5.364-2.672 1.334-.675 1.375-2.133 1.395-2.833.005-.218.02-.572.041-1.022a1.438 1.438 0 0 0-.329-.985l.486-6.835a1.44 1.44 0 0 0-.605-1.277l-8.122-5.748 5.38-5.449c.444-.398.494-.89.494-1.093 0-.234-.056-.464-.165-.67a9.715 9.715 0 0 0-.096-.18 16.878 16.878 0 0 0-1.625-2.486l-.012-.015a13.252 13.252 0 0 0-.198-.24l-.01-.014a14.486 14.486 0 0 0-.453-.51 12.198 12.198 0 0 0-.433-.438l-.023-.023h-.002c-.07-.067-.14-.131-.21-.195l-.009-.008-.014-.013-.01-.008a14.677 14.677 0 0 0-.235-.202l.008.007-.009-.008a8.42 8.42 0 0 0-.205-.165l-.029-.022-.014-.012-.188-.14-.057-.041a7.083 7.083 0 0 0-.238-.162l-.011-.008a6.38 6.38 0 0 0-.244-.151l-.003-.002a7.733 7.733 0 0 0-.181-.105l-.014-.007-.057-.031.005.003-.027-.015c-.058-.03-.111-.058-.166-.085a2.703 2.703 0 0 0-.632-.263 6.078 6.078 0 0 0-.155-.052l-.015-.005a3.036 3.036 0 0 0-.084-.024l-.033-.01-.03-.007a4.017 4.017 0 0 0-.108-.029l-.024-.005a3.268 3.268 0 0 0-.088-.02l-.014-.002-.021-.005a3.865 3.865 0 0 0-.265-.045l-.005-.001a3.233 3.233 0 0 0-.437-.039h-.066z" fill="#000"/>
    <path d="M29.603 16.862c.565-.224.877.017 1.397.391l8.76 6.2-19.554 9.05-10.277-7.289s17.713-7.569 19.674-8.352z" fill="url(#xhxzspa13a)"/>
    <path d="M29.482 17.268c.531-.21.655.087 1.143.439l8.225 5.82-18.36 8.499-9.65-6.844s16.8-7.179 18.642-7.914z" fill="url(#z8kowo5snb)"/>
    <path d="M28.997 17.444c.531-.211 1.14-.088 1.628.263l8.225 5.821-18.36 8.498-9.65-6.844s16.316-7.003 18.157-7.738z" fill="url(#oijcz5oy3c)"/>
    <path d="m9.929 25.214.344 6.633-.376.181.066 1.03c.082.922.073 1.069.61 1.552 2.608 2.379 5.936 5.015 8.735 7.68.64.62 1.075.726 1.075.726l-.177-10.513-9.775-6.975s-.537-.974-.502-.314z" fill="url(#2dr8t149yd)"/>
    <path d="m39.224 30.994.377.314c-.02.448-.036.812-.042 1.049-.023.804-.11 1.337-.606 1.589-1.813.919-15.889 7.876-17.73 8.856-.552.295-.84.214-.84.214l-.177-10.513 19.554-9.05-.536 7.541z" fill="url(#9kn8z2upze)"/>
    <path d="M19.35 42.265s.498.564 1.043.648c.566.085 1.184-.31 1.184-.31l-.208-10.59-1.163.49-1.067-.9.212 10.662z" fill="url(#mme17gyb3f)"/>
    <path d="M36.905 9.987c-1.872-3.555-4.36-5.467-6.129-4.922l-1.085.373-.693.492-18.608 6.41c.02-.261.122 13.207.122 13.207l19.253-8.326 7.14-7.234z" fill="url(#lrwfqykreg)"/>
    <path d="m38.61 31.152-17.583 8.7-.11-7.607 18.238-8.175-.546 7.082z" fill="url(#mn8h69gzlh)"/>
    <path d="m10.728 32.16 9.035 7.607-.147-7.542-9.232-6.596.344 6.531z" fill="url(#dbfjvmn8ni)"/>
    <path opacity=".31" d="m20.936 33.597 17.873-7.978-17.737 8.449-.136-.471zM38.684 28.12l-17.707 8.312 17.606-8.61.101.297z" fill="#582B20"/>
    <path opacity=".45" d="m21.214 38.234 17.379-8.298-17.445 8.139.066.16z" fill="#582B20"/>
    <path opacity=".31" d="m19.53 33.62-9.06-6.536 9.004 6.911.056-.375zM10.578 29.162l9 6.83-8.954-7.064-.046.234z" fill="#582B20"/>
    <path opacity=".45" d="m19.51 37.88-8.832-6.833 8.86 6.706-.029.127z" fill="#582B20"/>
    <path opacity=".31" d="M32.177 29.75c.455-.717.75-1.549.772-2.325.025-.846-.283-1.45-.79-1.723-.37-.779-1.214-1.047-2.211-.58-1.364.64-2.478 2.416-2.493 3.968-.008.845.307 1.447.81 1.721.005.013.013.026.02.04l-.894 3.855.377.42 5.305-2.577-.896-2.798z" fill="#582B20"/>
    <path d="M32.774 26.166c-.045 1.555-1.177 3.335-2.525 3.973-1.34.637-2.41-.105-2.392-1.657.017-1.553 1.136-3.33 2.504-3.97 1.375-.642 2.458.098 2.413 1.654z" fill="url(#7fxxtgn8oj)"/>
    <path d="M33.365 26.814c-.048 1.557-1.182 3.335-2.527 3.974-1.34.637-2.404-.105-2.384-1.659.02-1.553 1.14-3.33 2.507-3.97 1.374-.642 2.453.1 2.404 1.655z" fill="url(#zgmp05rjhk)"/>
    <path d="m33.483 31.939-5.32 2.58.928-4.07 3.405-1.593.987 3.083z" fill="url(#4y0measmgl)"/>
    <path d="M29.493 28.831c-.118.936.76 1.072.76 1.072l-.266 1.024-.415 1.783 2.704-1.305-.573-1.861-.066-.204.445-.659c.37-.58.396-1.235.411-1.786.012-.39-.186-.941-.605-.944a1.256 1.256 0 0 0-.522.136c-1.008.472-1.727 1.6-1.873 2.744z" fill="#231F20"/>
    <path opacity=".31" d="M16.021 30.2c-.082-.097-.218-.117-.303-.043-.084.073-.086.211-.003.31.703.836 1.135 1.825 1.16 2.645.017.555-.16.968-.496 1.164-.389.226-.97.15-1.598-.21-1.3-.74-2.412-2.416-2.473-3.737-.023-.495.108-.871.38-1.09.245-.196.589-.25.997-.159l-.018-.443c-.504-.1-.953-.018-1.273.24-.367.295-.545.782-.515 1.41.071 1.477 1.303 3.343 2.74 4.162.388.223.767.353 1.114.388.332.034.634-.02.885-.166.459-.266.7-.805.68-1.516-.025-.927-.501-2.032-1.277-2.955z" fill="#582B20"/>
    <path d="m27.785 34.098.378.42.928-4.069-.384-.3-.922 3.95z" fill="url(#55vavy1mjm)"/>
    <path d="M15.168 30.07c.03.83.58 1.145.58 1.145l-1.814-1.37s-.59-.273-.621-1.014c-.04-.475.474-.764.474-.764l1.904 1.255s-.538.267-.523.747z" fill="url(#jwgxsjz2pn)"/>
    <path d="M15.168 30.07c.03.83.58 1.145.58 1.145l-.057-1.893s-.538.267-.523.747z" fill="url(#8cyj8gkcmo)"/>
    <path d="M15.72 30.174c-.082-.098-.218-.118-.302-.045-.085.074-.087.213-.004.31.705.837 1.138 1.826 1.164 2.646.017.555-.16.968-.496 1.163-.388.227-.97.15-1.598-.209-1.3-.74-2.414-2.416-2.476-3.737-.024-.495.107-.871.378-1.089.245-.197.589-.25.997-.16l-.018-.443c-.505-.099-.953-.017-1.274.24-.366.295-.543.782-.512 1.41.072 1.476 1.306 3.342 2.744 4.162.389.223.768.353 1.114.387.333.035.635-.02.885-.165.459-.267.7-.805.68-1.517-.027-.927-.505-2.03-1.281-2.954z" fill="url(#98kp4l4vmp)"/>
    <path d="M15.72 30.174a.247.247 0 0 0-.132-.08c.75.911 1.212 1.989 1.24 2.896.02.712-.221 1.25-.68 1.517-.25.145-.552.2-.885.166-.346-.035-.726-.165-1.115-.388a4.477 4.477 0 0 1-.449-.297c.202.163.41.311.623.434.39.223.769.353 1.115.387.333.035.635-.02.885-.165.458-.267.7-.805.68-1.517-.027-.927-.505-2.03-1.281-2.954z" fill="url(#wzzwn4idiq)"/>
    <path d="M12.386 29.213c.245-.197.588-.25.997-.16l-.019-.443a2.04 2.04 0 0 0-.174-.026l.015.334c-.41-.091-.753-.038-.998.16-.271.217-.402.593-.378 1.088.057 1.182.957 2.645 2.078 3.47-1.037-.843-1.847-2.215-1.9-3.334-.023-.495.107-.871.379-1.089z" fill="url(#pqr5vveb1r)"/>
    <path d="M36.816 9.822c-1.861-3.448-4.3-5.293-6.04-4.757l-1.086.373c1.419-.104 3.176 1.123 4.722 3.347l-16.675 6.402c-1.534-2.36-3.258-3.806-4.715-4.008l-2.613.9 6.807 5.966 19.689-8.058a9.15 9.15 0 0 0-.09-.165z" fill="url(#sycvctvmys)"/>
    <path d="M17.216 18.045c-2.514-5.097-6.06-7.503-7.929-5.317-1.877 2.25-1.333 8.015 1.225 12.82l6.704-7.503z" fill="url(#vl5d4g8plt)"/>
    <path d="M14.604 17.773c-1.4-3.083-3.372-4.539-4.41-3.217-1.046 1.362-.743 4.849.68 7.755l3.73-4.538z" fill="url(#9w4xnqkhpu)"/>
    <path d="M36.905 9.987c0 .32-19.689 8.058-19.689 8.058l-6.704 7.502 19.449-8.539 6.944-7.02z" fill="url(#tzberbf8lv)"/>
    <path opacity=".54" d="m32.5 7.183-15.726 5.973 15.633-6.184.094.211z" fill="#582B20"/>
    <path opacity=".45" d="m14.952 11.92 16.236-5.93-16.299 5.817.063.113z" fill="#582B20"/>
    <path opacity=".31" d="m13.28 15.927-3.04 4.066 3.171-4.018-.13-.048zM12.152 14.524l-2.55 3.243 2.662-3.203-.112-.04z" fill="#582B20"/>
    <path d="M20.937 24.389c.127-.16.339-.23.556-.208l5.838.896-1.48 2.224-6.317-1.14s.963-1.214 1.403-1.772z" fill="url(#udnuhv7xdw)"/>
    <path d="m19.55 26.532.39 1.49c.08.306.276.556.516.608l6.1 1.325c.305.066.461.017.461.017L25.852 27.3l-6.318-1.14s-.042.144.017.371z" fill="url(#x34soykb1x)"/>
    <path d="m19.55 26.532.39 1.49c.08.306.276.556.516.608l6.1 1.325c.305.066.461.017.461.017L25.852 27.3l-6.318-1.14s-.042.144.017.371z" fill="url(#z5pa9qcf1y)"/>
    <path d="M27.739 25.365c.314.312.82.815 1.15 1.14.19.19.256.417.149.578L27.25 29.75c-.129.191-.234.221-.234.221l-1.165-2.67 1.48-2.225c0 .001.237.12.407.29z" fill="url(#hd5evsemnz)"/>
    <path d="m28.939 26.909-1.787 2.667c-.129.191-.234.22-.234.22s-.156.05-.461-.016l-6.1-1.325a.609.609 0 0 1-.356-.26c.098.224.262.394.455.436 1.18.255 4.783 1.038 6.1 1.325.305.066.461.016.461.016s.106-.03.234-.221l1.787-2.667c.092-.139.055-.325-.077-.496.042.115.04.229-.022.32z" fill="url(#jhk5arghpA)"/>
    <path d="M25.925 27.043a.316.316 0 0 1-.329.14l-5.9-1.063-.109.137 5.996 1.081c.204.037.38-.028.472-.166l1.33-2-.195-.03-1.265 1.9z" fill="url(#r1lye4347B)"/>
    <path d="M26.565 29.939s.25.076.439 0c.195-.08.327-.315.327-.315l-1.201-2.677-.278.354-.475-.08 1.188 2.718z" fill="url(#cfc6i27caC)"/>
    <path d="M19.237 23.3c.186.086.303.277.33.493l.476 5.888-2.505-.927-.35-6.41s1.405.657 2.05.956z" fill="url(#qhelncdmrD)"/>
    <path d="m16.832 22.445-1.36.722c-.28.148-.477.398-.472.643l.118 6.241c.006.312.09.454.09.454l2.33-1.75-.35-6.411s-.149-.009-.356.101z" fill="url(#f7vcjly1jE)"/>
    <path d="m16.832 22.445-1.36.722c-.28.148-.477.398-.472.643l.118 6.241c.006.312.09.454.09.454l2.33-1.75-.35-6.411s-.149-.009-.356.101z" fill="url(#tqtan3zheF)"/>
    <path d="m19.856 30.144-.845 1.381c-.14.23-.345.346-.526.279l-3.008-1.123c-.216-.081-.27-.177-.27-.177l2.33-1.75 2.506.927s-.062.258-.187.463z" fill="url(#lsao22d72G)"/>
    <path d="m18.632 31.667-3.008-1.123c-.216-.081-.269-.177-.269-.177s-.085-.14-.09-.452l-.118-6.241a.613.613 0 0 1 .17-.406c-.194.147-.321.345-.317.542l.118 6.241c.006.312.09.454.09.454s.053.095.27.176l3.007 1.123c.156.058.33-.02.464-.189-.103.068-.214.09-.317.052z" fill="url(#pec4b63imH)"/>
    <path d="M17.806 28.767a.317.317 0 0 1-.213-.289l-.326-5.985-.159-.075.331 6.083c.012.208.115.363.27.42.637.237 2.254.834 2.254.834l-.016-.196-2.14-.792z" fill="url(#e4020nmw5I)"/>
    <path d="M15.135 30.057s-.016.26.102.426c.123.172.381.246.381.246l2.328-1.786-.409-.19-.032-.48-2.37 1.784z" fill="url(#dwvloptlpJ)"/>
    <path d="m26.984 24.383.238 1.522c.049.311.22.58.454.655l5.935 1.93c.297.095.458.062.458.062l-.892-2.774-6.172-1.766s-.057.139-.02.37z" fill="url(#kk9r6vrqhK)"/>
    <path d="M29.895 20.758c.142-.147.36-.195.574-.15l5.719 1.476-1.695 2.064-6.172-1.766 1.574-1.624z" fill="url(#koohsqtbvL)"/>
    <path d="m28.3 22.752.238 1.522c.05.313.22.58.454.656l5.935 1.928c.298.097.458.064.458.064l-.892-2.774-6.173-1.766c.001 0-.055.139-.02.37z" fill="url(#l6qr1hxz3M)"/>
    <path d="m28.3 22.752.238 1.522c.05.313.22.58.454.656l5.935 1.928c.298.097.458.064.458.064l-.892-2.774-6.173-1.766c.001 0-.055.139-.02.37z" fill="url(#ajgfbntmpN)"/>
    <path d="m36.565 22.411 1.03 1.25c.17.207.213.44.09.589l-2.045 2.474c-.147.179-.255.198-.255.198l-.892-2.774 1.695-2.064s.225.142.377.327z" fill="url(#k8gvot1z1O)"/>
    <path d="m37.604 24.066-2.045 2.475c-.147.178-.255.197-.255.197s-.16.034-.458-.063c-1.28-.416-4.787-1.555-5.935-1.93a.617.617 0 0 1-.328-.293c.075.231.221.416.409.477l5.935 1.929c.297.097.458.063.458.063s.108-.02.255-.197l2.045-2.475c.106-.128.088-.318-.027-.5.03.12.016.232-.054.317z" fill="url(#rvlxt1phnP)"/>
    <path d="M34.593 23.898a.316.316 0 0 1-.342.108l-5.764-1.65-.122.126 5.857 1.676c.2.057.38.01.486-.118l1.524-1.857-.192-.049-1.447 1.764z" fill="url(#sivfb7ymlQ)"/>
    <path d="M34.939 26.844s.242.101.436.044c.202-.06.358-.28.358-.28l-.927-2.784-.313.324-.465-.126.91 2.822z" fill="url(#hhp8qn2rzR)"/>
    <path d="M22.858 22.704c1.036-.881 2.714-.687 2.714-.687.042.049.446.605.48.659.512.795.186 2.032-.784 2.859-.972.827-2.245.95-2.949.318a20.39 20.39 0 0 1-.504-.514s.007-1.753 1.043-2.635z" fill="url(#eh13yuzzuS)"/>
    <path d="M22.43 22.202c1.058-.9 2.464-.982 3.142-.185.679.797.372 2.172-.685 3.071-1.056.9-2.463.982-3.141.185-.679-.796-.372-2.172.685-3.071z" fill="url(#4wz9jg46lT)"/>
    <path d="M22.608 22.41c.904-.77 2.095-.857 2.659-.195.564.663.288 1.825-.617 2.594-.904.77-2.095.857-2.66.195-.563-.664-.287-1.825.618-2.594z" fill="url(#51zlwe7poU)"/>
    <path d="M22.608 22.41c-.905.77-1.181 1.93-.617 2.594a.805.805 0 0 0 .042.045c-.51-.669-.227-1.793.656-2.544.883-.751 2.038-.851 2.617-.24-.013-.017-.025-.034-.039-.05-.564-.662-1.755-.575-2.66.195z" fill="url(#sv5sbw518V)"/>
    <path d="M25.084 22.894c.02.01.05.06.093.149l.027.082c.014.035.02.06.02.076-.114.043-.258.1-.433.168l-.015.006a.972.972 0 0 1-.146.449c-.09.153-.187.248-.292.284-.083.03-.139.038-.166.026-.05-.02-.105-.096-.162-.228a.21.21 0 0 1 .079-.047c.024-.01.059-.022.104-.035a1.66 1.66 0 0 0 .09-.026c.172-.06.25-.175.237-.345l-.097.017c-.063.023-.242.083-.537.18-.16.053-.31.106-.449.158-.05.17-.096.29-.135.361a.554.554 0 0 1-.303.26c-.182.064-.346-.038-.492-.304l-.379.133a.06.06 0 0 1-.014-.03.431.431 0 0 1 0-.131l.01-.163a.328.328 0 0 0 .07-.011c.08-.03.159-.056.236-.08.018-.14.065-.285.142-.434a.366.366 0 0 0 .031-.014l.045-.019c.079-.028.131-.001.159.08a7.919 7.919 0 0 1-.06.128c-.03.063-.042.11-.035.141a.052.052 0 0 0 .01.023l.2-.064.093-.024a.904.904 0 0 0 .118-.036l.011-.004c.157-.438.387-.71.69-.816a.807.807 0 0 1 .465-.02c.179.043.31.132.394.268l.39-.158zm-2.035 1.04-.232.082a.744.744 0 0 0 .064.083c.04.023.071.03.095.023.022-.008.047-.036.074-.083v-.105zm.495-.46c.254-.09.5-.174.738-.254.024-.007.077-.027.159-.061-.098-.167-.26-.21-.487-.13-.174.06-.31.209-.41.444z" fill="url(#lq1pfk22mW)"/>
    <path d="M24.34 23.252c.023-.007.075-.027.157-.062a.325.325 0 0 0-.156-.143.352.352 0 0 1 .1.112 2.056 2.056 0 0 1-.159.062c-.21.07-.428.144-.653.223a.96.96 0 0 0-.028.062c.254-.09.5-.175.738-.254zM22.17 24.129l.01-.163a.324.324 0 0 0 .07-.011c.08-.03.159-.056.236-.081.018-.14.066-.284.142-.434a.41.41 0 0 0 .032-.014l.044-.018a.142.142 0 0 1 .07-.009c-.03-.035-.071-.042-.127-.023a.534.534 0 0 0-.076.033c-.076.15-.124.294-.141.433a5.354 5.354 0 0 0-.236.081.357.357 0 0 1-.071.011l-.01.163a.413.413 0 0 0 0 .13.059.059 0 0 0 .015.03l.04-.013a.47.47 0 0 1 .003-.115zM22.564 24.156l-.033.012c.079.131.162.216.25.254a.75.75 0 0 1-.217-.266zM24.283 23.798a1.905 1.905 0 0 1-.091.026 1.03 1.03 0 0 0-.104.034.213.213 0 0 0-.078.048c.057.132.11.208.162.228.004.002.01.002.014.003a.628.628 0 0 1-.12-.2.214.214 0 0 1 .08-.047c.024-.01.058-.021.103-.035.049-.013.079-.021.091-.026.17-.06.25-.175.237-.345l-.057.01c-.003.148-.08.25-.237.304zM23.833 22.804c-.303.106-.532.378-.69.816l-.01.004a.882.882 0 0 1-.12.035 2.037 2.037 0 0 1-.091.024l-.155.05.001.024a.05.05 0 0 0 .011.023l.2-.065c.006 0 .037-.009.092-.024a.845.845 0 0 0 .119-.036l.01-.004c.158-.437.387-.709.69-.815a.808.808 0 0 1 .625.037.807.807 0 0 0-.682-.069zM24.75 23.084l.37-.149c-.015-.022-.027-.036-.036-.04-.003 0-.125.05-.364.146l.03.043zM22.938 24.13c.04.024.071.032.095.023.022-.007.046-.035.074-.082l-.001-.105-.056.02v.053c-.027.047-.052.075-.074.083a.074.074 0 0 1-.046-.002.112.112 0 0 0 .008.01z" fill="#EBF2F5"/>
    <path d="M22.855 23.544a.139.139 0 0 0-.05-.074l-.056.12c-.03.063-.043.11-.036.141a.049.049 0 0 0 .011.022l.044-.014a.513.513 0 0 1 .027-.067l.06-.128z" fill="url(#gs47vp89fX)"/>
    <path d="M22.82 24.021a.69.69 0 0 0 .059.078l.173-.06v-.1l-.232.082z" fill="url(#kigdaz9a9Y)"/>
    <path d="M24.443 23.164c-.098-.166-.26-.21-.487-.13-.174.061-.31.21-.41.445l.105-.036c.092-.167.21-.276.351-.326.187-.066.33-.048.428.053l.013-.006z" fill="url(#s5jfxgyp3Z)"/>
    <path d="m25.178 23.049.028.082c.013.035.02.06.02.076-.114.043-.258.1-.433.168l-.015.005a.985.985 0 0 1-.146.45c-.09.153-.188.247-.292.284-.084.029-.139.038-.166.026-.029-.012-.058-.04-.089-.087.047.096.092.153.135.17.027.011.083.003.166-.027.105-.036.201-.131.292-.284a.975.975 0 0 0 .146-.45l.015-.005c.175-.069.32-.125.433-.168a.24.24 0 0 0-.02-.076 7.861 7.861 0 0 1-.027-.082.94.94 0 0 0-.062-.115l.015.033z" fill="url(#0zotfx96gaa)"/>
    <path d="m23.934 23.739.537-.18.047-.01a.422.422 0 0 0 .004-.09l-.097.017-.537.18c-.16.052-.31.105-.448.158-.051.17-.097.29-.136.36a.554.554 0 0 1-.304.26c-.181.064-.345-.038-.49-.304l-.353.123c0 .025.002.046.005.063a.06.06 0 0 0 .015.03l.378-.134c.147.267.31.369.492.305a.555.555 0 0 0 .303-.26c.04-.07.085-.19.136-.361a9.97 9.97 0 0 1 .448-.157z" fill="url(#qb29n0ycfab)"/>
    <path d="M24.21 29.146c.58 1.231-.045 2.8-.045 2.8-.058.027-.702.272-.762.291-.901.286-2.01-.35-2.555-1.504-.545-1.154-.33-2.415.463-2.93.053-.034.57-.324.628-.352 0 0 1.69.465 2.27 1.695z" fill="url(#guvj8wd7hac)"/>
    <path d="M24.806 28.865c.592 1.255.305 2.635-.641 3.08-.947.448-2.195-.208-2.786-1.463-.593-1.255-.305-2.634.642-3.08.946-.447 2.193.208 2.785 1.463z" fill="url(#59e581ob9ad)"/>
    <path d="M24.56 28.982c.506 1.074.28 2.246-.507 2.617s-1.836-.199-2.343-1.273c-.507-1.074-.28-2.246.507-2.617.788-.372 1.836.198 2.343 1.273z" fill="url(#cpklniq48ae)"/>
    <path d="M24.56 28.982c-.507-1.075-1.555-1.645-2.343-1.273a.794.794 0 0 0-.055.028c.779-.318 1.79.25 2.284 1.298.495 1.048.29 2.189-.45 2.589l.057-.025c.787-.371 1.013-1.543.507-2.617z" fill="url(#0yv7glmjraf)"/>
    <path d="M23.445 31.245c-.015.016-.07.034-.167.05l-.086.006a.222.222 0 0 1-.08-.001c-.011-.121-.028-.275-.048-.461l-.002-.016a.975.975 0 0 1-.395-.259c-.124-.127-.19-.245-.198-.355-.007-.088 0-.145.018-.168.032-.044.12-.076.262-.097a.206.206 0 0 1 .026.09c.003.025.005.061.006.108l.001.094c.014.181.104.287.272.32l.008-.099a61.416 61.416 0 0 1-.034-.565c-.008-.168-.02-.326-.034-.475a1.963 1.963 0 0 1-.314-.225.555.555 0 0 1-.171-.36c-.014-.193.126-.325.422-.396l-.03-.4a.058.058 0 0 1 .033-.006.425.425 0 0 1 .126.034l.155.052a.33.33 0 0 0-.008.072c.008.084.013.167.016.248.13.054.258.137.382.25l.005.035c.003.019.006.035.006.048.006.082-.033.126-.118.131a8.696 8.696 0 0 1-.108-.09c-.053-.046-.095-.07-.128-.071a.051.051 0 0 0-.024.004l.01.21-.001.095a.906.906 0 0 0 .004.125v.011c.382.266.584.559.608.878a.805.805 0 0 1-.103.455.603.603 0 0 1-.361.31l.05.418zm-.472-2.236-.018-.244a.709.709 0 0 0-.097.04c-.033.032-.048.06-.047.085.002.023.022.054.06.093l.102.026zm.315.598c.02.27.037.53.052.779 0 .025.006.081.018.17.186-.052.27-.197.253-.436-.014-.184-.122-.355-.323-.513z" fill="url(#zycq4cgsxag)"/>
    <path d="M23.294 30.433c0 .025.007.08.018.169a.323.323 0 0 0 .18-.113.344.344 0 0 1-.134.066 2.02 2.02 0 0 1-.018-.169 51.032 51.032 0 0 0-.045-.689 1.057 1.057 0 0 0-.053-.044c.02.27.038.53.052.78zM23.014 28.11l.155.052a.315.315 0 0 0-.007.072c.007.084.012.167.016.248.13.054.257.137.381.25a1.266 1.266 0 0 0 .012.083.14.14 0 0 1-.01.07c.04-.02.06-.059.055-.117 0-.013-.003-.029-.006-.047a.33.33 0 0 1-.005-.035 1.33 1.33 0 0 0-.382-.25 5.277 5.277 0 0 0-.016-.249c-.001-.013.002-.036.008-.071l-.155-.052a.414.414 0 0 0-.126-.035.058.058 0 0 0-.033.006l.003.043a.467.467 0 0 1 .11.033zM22.885 28.483l-.003-.035c-.147.042-.25.1-.31.175a.757.757 0 0 1 .313-.14zM22.782 30.236l-.001-.095a1.18 1.18 0 0 0-.006-.108.213.213 0 0 0-.026-.089c-.142.02-.23.053-.262.097-.003.003-.005.008-.007.013a.647.647 0 0 1 .224-.063c.012.02.021.05.025.088.003.026.006.062.006.109 0 .05 0 .082.002.095.013.18.104.286.271.318l.005-.057c-.142-.04-.219-.143-.231-.308zM23.859 30.061c-.024-.32-.226-.613-.608-.878v-.011a2.049 2.049 0 0 1-.003-.22l-.008-.163a.087.087 0 0 0-.023-.005.052.052 0 0 0-.025.005l.01.21v.095a.822.822 0 0 0 .003.124v.011c.382.266.585.559.608.879a.809.809 0 0 1-.2.593.805.805 0 0 0 .245-.64zM23.35 30.873l.046.396c.026-.008.042-.016.049-.024l-.047-.39a.74.74 0 0 1-.049.018zM22.812 28.85c-.033.033-.049.062-.046.086.001.023.021.055.06.094l.101.026-.004-.06-.052-.013c-.038-.04-.058-.07-.06-.094a.074.074 0 0 1 .014-.044l-.013.006z" fill="#EBF2F5"/>
    <path d="M23.4 28.924a.145.145 0 0 0 .085-.03l-.101-.084c-.053-.046-.096-.07-.127-.072a.05.05 0 0 0-.025.005l.002.046a.545.545 0 0 1 .059.044c.067.058.103.088.107.09z" fill="url(#nx10urvd3ah)"/>
    <path d="M22.948 28.765a.851.851 0 0 0-.09.037l.014.183.095.025-.019-.245z" fill="url(#98zvyt949ai)"/>
    <path d="M23.352 30.556c.186-.051.27-.196.253-.436-.014-.184-.121-.355-.323-.513l.008.111c.136.133.212.275.223.425.015.197-.04.33-.163.4l.002.013z" fill="url(#mo9f0elyaaj)"/>
    <path d="m23.271 31.296-.086.006a.231.231 0 0 1-.078-.002l-.05-.461v-.016a.982.982 0 0 1-.396-.258c-.125-.128-.19-.246-.199-.356-.006-.088 0-.144.019-.168.018-.024.054-.045.106-.062-.104.02-.171.049-.198.085-.019.024-.025.08-.018.168.007.11.074.228.198.355a.975.975 0 0 0 .395.259l.002.016.049.461a.23.23 0 0 0 .078.002l.087-.006a.945.945 0 0 0 .127-.03l-.036.007z" fill="url(#uyzc8x7h6ak)"/>
    <path d="m22.93 29.915.034.565-.004.048a.398.398 0 0 0 .087.027l.009-.098-.035-.565a9.853 9.853 0 0 0-.034-.474 1.983 1.983 0 0 1-.313-.226.553.553 0 0 1-.172-.36c-.014-.192.127-.324.422-.396l-.027-.371a.303.303 0 0 0-.061-.012.066.066 0 0 0-.033.006l.03.4c-.296.072-.437.204-.422.396.01.136.067.256.17.36.059.057.163.132.314.226.015.148.027.306.035.474z" fill="url(#5msy3zssnal)"/>
    <path d="M25.763 21.293c.242-.584.788-1.12 1.526-1.425 1.25-.515 2.577-.169 2.966.774l.007.02a26.142 26.142 0 0 1 .24.735c.085.33.048.68-.091 1.015-.239.572-.774 1.098-1.498 1.397-1.148.473-2.365.204-2.826-.593-.023-.04-.179-.35-.262-.52a1.539 1.539 0 0 1-.095-.189c-.159-.386-.136-.81.033-1.214z" fill="#fff"/>
    <path d="M25.763 21.293c.242-.584.788-1.12 1.526-1.425 1.25-.515 2.577-.169 2.966.774l.007.02a26.142 26.142 0 0 1 .24.735c.085.33.048.68-.091 1.015-.239.572-.774 1.098-1.498 1.397-1.148.473-2.365.204-2.826-.593-.023-.04-.179-.35-.262-.52a1.539 1.539 0 0 1-.095-.189c-.159-.386-.136-.81.033-1.214z" fill="#000"/>
    <path d="M27.532 20.447c1.233-.508 2.736.181 2.736.181.024.059.233.7.248.76.235.895-.442 1.949-1.596 2.425-1.156.475-2.379.205-2.843-.596-.03-.053-.29-.574-.314-.632 0 0 .537-1.63 1.769-2.138z" fill="url(#jderx894qam)"/>
    <path d="M27.286 19.85c1.256-.518 2.591-.169 2.982.778.39.948-.311 2.136-1.568 2.654-1.256.518-2.591.17-2.982-.778-.39-.948.312-2.136 1.568-2.654z" fill="url(#eyo9ydalgan)"/>
    <path d="M27.388 20.097c1.075-.443 2.21-.164 2.535.624.325.788-.284 1.785-1.36 2.229-1.075.444-2.21.164-2.535-.624-.324-.788.284-1.785 1.36-2.229z" fill="url(#nc94h6l3cao)"/>
    <path d="M27.388 20.097c-1.076.443-1.685 1.441-1.36 2.229l.025.056c-.272-.778.333-1.74 1.382-2.172 1.05-.432 2.155-.176 2.51.569a.976.976 0 0 0-.022-.059c-.325-.787-1.46-1.066-2.535-.623z" fill="url(#8vlfjscpeap)"/>
    <path d="M29.548 21.298c.015.015.029.07.041.166l.002.085a.266.266 0 0 1-.006.077l-.454.025h-.015a.95.95 0 0 1-.272.375c-.13.115-.25.174-.357.176-.087.002-.142-.006-.164-.026-.04-.034-.068-.12-.082-.261a.212.212 0 0 1 .09-.02.947.947 0 0 1 .106-.002l.092.004c.177-.004.285-.088.325-.25l-.096-.013c-.066.002-.25.003-.555.006a9.7 9.7 0 0 0-.465.01 1.854 1.854 0 0 1-.236.295.54.54 0 0 1-.36.15c-.19.005-.311-.14-.366-.432l-.393.01c-.005-.007-.006-.018-.005-.033a.385.385 0 0 1 .04-.121l.058-.15a.325.325 0 0 0 .07.012c.083-.003.164-.004.244-.004.059-.124.146-.245.263-.36a.616.616 0 0 0 .034-.005l.046-.003c.082-.002.123.038.125.122a9.844 9.844 0 0 1-.094.102c-.048.049-.074.09-.076.12a.042.042 0 0 0 .003.025l.205.001.093.005a.878.878 0 0 0 .122.003h.012c.278-.36.574-.544.888-.552a.79.79 0 0 1 .44.123.59.59 0 0 1 .286.369l.41-.029zm-2.21.353-.24.005c.006.028.018.06.034.097.03.034.056.05.08.05s.055-.02.095-.055l.03-.097zm.6-.28c.264-.006.519-.01.764-.012.024 0 .08-.002.167-.01-.04-.184-.179-.273-.414-.268-.18.004-.353.101-.518.29z" fill="url(#yh8682n1haq)"/>
    <path d="M28.745 21.406c.024 0 .08-.003.167-.01a.324.324 0 0 0-.102-.181.364.364 0 0 1 .058.134c-.087.007-.142.01-.166.01-.217.002-.443.005-.676.01l-.045.049c.264-.006.52-.01.764-.012zM26.46 21.566l.059-.15a.355.355 0 0 0 .07.012c.082-.003.164-.004.243-.003.059-.125.147-.245.263-.362.004 0 .015 0 .034-.003a.486.486 0 0 1 .047-.004c.027 0 .05.004.069.013-.018-.041-.055-.061-.112-.06a.368.368 0 0 0-.047.004.288.288 0 0 1-.034.003 1.308 1.308 0 0 0-.263.361c-.08 0-.162 0-.244.004a.394.394 0 0 1-.07-.011l-.058.149a.412.412 0 0 0-.04.122.055.055 0 0 0 .004.032h.042a.451.451 0 0 1 .038-.107zM26.818 21.71l-.033.001c.033.146.085.25.155.313a.746.746 0 0 1-.122-.314zM28.528 21.898a2.93 2.93 0 0 1-.092-.004 1.006 1.006 0 0 0-.108 0 .21.21 0 0 0-.087.021c.014.14.04.228.082.262a.096.096 0 0 0 .013.006.612.612 0 0 1-.051-.221.203.203 0 0 1 .087-.02c.026-.002.061-.003.106-.002l.094.004c.177-.004.285-.088.324-.25l-.056-.007c-.047.135-.15.206-.312.21zM28.41 20.835c-.314.008-.61.191-.889.551h-.011a.934.934 0 0 1-.122-.002 1.43 1.43 0 0 1-.093-.005h-.16a.081.081 0 0 0-.006.022c0 .008 0 .016.004.024l.205.001a3.431 3.431 0 0 0 .215.008h.012c.278-.36.574-.544.888-.551a.786.786 0 0 1 .57.223.674.674 0 0 0-.174-.148.786.786 0 0 0-.439-.123zM29.179 21.373l.39-.026a.142.142 0 0 0-.021-.049l-.384.026a.48.48 0 0 1 .015.05zM27.175 21.8c.03.034.057.05.081.05.023 0 .054-.02.095-.055l.03-.097h-.058l-.016.05c-.04.036-.071.055-.094.055a.075.075 0 0 1-.042-.015.076.076 0 0 0 .004.012z" fill="#FFF200"/>
    <path d="M27.274 21.229a.13.13 0 0 0-.024-.085l-.087.095c-.048.049-.073.09-.077.121a.044.044 0 0 0 .004.024h.045a.471.471 0 0 1 .045-.054l.094-.101z" fill="url(#aed0bfslcar)"/>
    <path d="M27.097 21.662a.802.802 0 0 0 .032.09l.18-.004.029-.092-.24.006z" fill="url(#pmx5o1xabas)"/>
    <path d="M28.869 21.355c-.04-.184-.179-.274-.414-.269-.18.005-.354.101-.517.291l.108-.002c.137-.128.278-.194.427-.198.193-.004.32.055.382.179h.014z" fill="url(#2faslf401at)"/>
    <path d="m29.589 21.47.001.085a.23.23 0 0 1-.005.077l-.454.026h-.015a.966.966 0 0 1-.272.374c-.13.115-.25.174-.358.176-.086.002-.14-.007-.163-.025-.023-.02-.041-.055-.055-.108.014.103.039.17.074.199.022.02.076.027.162.026.109-.003.227-.062.358-.177.13-.115.221-.24.272-.374h.015l.454-.026a.267.267 0 0 0 .006-.077l-.002-.085a.885.885 0 0 0-.023-.126l.005.035z" fill="url(#9qc7vlo6tau)"/>
    <path d="M28.221 21.736c.304-.002.488-.003.555-.005l.046.006a.364.364 0 0 0 .032-.084l-.096-.013c-.066.002-.25.003-.555.005-.165.001-.32.005-.465.011a1.913 1.913 0 0 1-.236.295.541.541 0 0 1-.36.15c-.19.005-.311-.14-.367-.431l-.364.008a.285.285 0 0 0-.016.06c0 .013.001.024.006.032l.393-.01c.055.293.177.437.365.433a.543.543 0 0 0 .361-.15 1.89 1.89 0 0 0 .236-.296c.145-.007.3-.01.465-.01z" fill="url(#0rzpzb46nav)"/>
    <path d="M26.744 22.408c.668 0 1.413.314 2.01.912 1.01 1.01 1.212 2.446.45 3.209l-.016.015a29.008 29.008 0 0 1-.62.532 1.672 1.672 0 0 1-1.027.324c-.655 0-1.387-.308-1.972-.894-.929-.929-1.16-2.225-.57-3 .03-.039.27-.316.402-.466.044-.06.092-.116.145-.17.311-.312.736-.462 1.198-.462z" fill="#fff"/>
    <path d="M26.744 22.408c.668 0 1.413.314 2.01.912 1.01 1.01 1.212 2.446.45 3.209l-.016.015a29.008 29.008 0 0 1-.62.532 1.672 1.672 0 0 1-1.027.324c-.655 0-1.387-.308-1.972-.894-.929-.929-1.16-2.225-.57-3 .03-.039.27-.316.402-.466.044-.06.092-.116.145-.17.311-.312.736-.462 1.198-.462z" fill="#000"/>
    <path d="M28.288 23.791c.996.997.935 2.745.935 2.745-.047.046-.588.51-.64.55-.778.593-2.082.36-3.016-.573-.934-.934-1.166-2.238-.573-3.016.04-.052.442-.516.489-.563 0 0 1.81-.138 2.805.857z" fill="url(#vl7m0p127aw)"/>
    <path d="M28.771 23.309c1.016 1.016 1.218 2.46.452 3.227-.766.766-2.21.564-3.227-.453-1.015-1.015-1.218-2.46-.452-3.226.767-.766 2.211-.564 3.227.452z" fill="url(#9wpnjlqmfax)"/>
    <path d="M28.571 23.509c.87.87 1.058 2.09.422 2.728-.637.637-1.859.448-2.729-.422-.87-.869-1.058-2.09-.42-2.727.636-.638 1.857-.449 2.727.421z" fill="url(#u8togczpqay)"/>
    <path d="M28.571 23.509c-.87-.87-2.09-1.058-2.728-.422l-.044.048c.649-.582 1.832-.383 2.68.466.849.848 1.048 2.031.466 2.68l.047-.045c.637-.636.448-1.858-.421-2.727z" fill="url(#itqthto5aaz)"/>
    <path d="M28.276 26.105c-.008.02-.056.056-.145.108-.003 0-.03.012-.082.035a.268.268 0 0 1-.078.026 73.875 73.875 0 0 0-.209-.433l-.006-.014a1.006 1.006 0 0 1-.475-.114c-.166-.08-.272-.173-.318-.277-.037-.084-.051-.14-.041-.17.016-.054.09-.116.222-.186.02.017.04.043.056.078.013.024.027.059.045.104.017.049.028.08.034.092.076.17.201.242.376.215l-.027-.1a70.705 70.705 0 0 1-.23-.538c-.068-.162-.134-.311-.2-.45a1.96 1.96 0 0 1-.384-.11.575.575 0 0 1-.293-.291c-.081-.182.01-.36.273-.533l-.17-.38a.06.06 0 0 1 .03-.018.42.42 0 0 1 .136-.01l.169-.003a.35.35 0 0 0 .017.072c.037.08.071.159.103.237.145.007.299.043.46.11a.674.674 0 0 1 .04.076c.034.078.011.135-.07.17a6.212 6.212 0 0 1-.137-.05c-.067-.027-.117-.036-.15-.025a.052.052 0 0 0-.021.013l.082.2a2.528 2.528 0 0 0 .08.213l.005.011c.464.126.764.34.899.644a.834.834 0 0 1 .059.478.626.626 0 0 1-.244.43l.194.39zm-1.241-2.014-.104-.233a.693.693 0 0 0-.08.074c-.02.042-.026.075-.016.1.01.021.04.044.092.07l.108-.011zm.516.472c.113.256.22.503.323.741.009.024.034.077.076.159.164-.114.195-.285.095-.513-.078-.175-.243-.304-.494-.387z" fill="url(#u32e95zfcaA)"/>
    <path d="M27.845 25.365c.01.024.035.077.077.159a.343.343 0 0 0 .136-.173.381.381 0 0 1-.108.111 1.943 1.943 0 0 1-.076-.158c-.09-.211-.185-.43-.285-.655a1.864 1.864 0 0 0-.066-.025c.113.256.221.503.322.741zM26.761 23.2l.169-.003c.006.035.011.06.017.072.036.08.07.159.103.237.145.006.298.043.459.11a.544.544 0 0 1 .04.076c.012.026.016.05.015.071.033-.034.038-.077.013-.133a.412.412 0 0 0-.023-.044.27.27 0 0 1-.017-.032 1.39 1.39 0 0 0-.459-.11 5.324 5.324 0 0 0-.103-.236.416.416 0 0 1-.017-.073l-.169.004a.422.422 0 0 0-.135.01.057.057 0 0 0-.03.017l.018.04a.51.51 0 0 1 .119-.005zM26.765 23.608l-.014-.032c-.13.092-.21.185-.243.28a.786.786 0 0 1 .257-.248zM27.277 25.354l-.034-.093a.989.989 0 0 0-.044-.104.214.214 0 0 0-.056-.077c-.131.07-.205.132-.222.186l-.001.015c.034-.042.099-.089.195-.14.02.016.039.042.055.077.013.025.027.06.045.104.017.05.029.08.034.093.076.17.202.242.376.215l-.015-.058c-.152.01-.263-.063-.333-.218zM28.266 24.806c-.135-.304-.435-.518-.9-.643l-.004-.011a.955.955 0 0 1-.047-.12 1.71 1.71 0 0 1-.033-.093l-.065-.156a.09.09 0 0 0-.024.003.055.055 0 0 0-.022.014l.082.2a2.812 2.812 0 0 0 .08.213l.005.011c.465.125.764.34.899.644a.834.834 0 0 1 .014.647.723.723 0 0 0 .073-.23.833.833 0 0 0-.058-.48zM28.053 25.775l.185.37a.133.133 0 0 0 .038-.04l-.18-.364c-.014.012-.028.024-.043.034zM26.823 23.992c-.021.043-.026.076-.016.1.01.022.04.045.092.07l.107-.01-.024-.056-.055.005c-.052-.025-.082-.048-.092-.07a.083.083 0 0 1-.002-.048l-.01.01z" fill="#FFF200"/>
    <path d="M27.42 23.858a.143.143 0 0 0 .073-.058l-.127-.047c-.068-.027-.118-.035-.15-.025a.052.052 0 0 0-.022.013l.018.044a.49.49 0 0 1 .072.022c.087.033.132.05.137.05z" fill="url(#6lwqghi7aaB)"/>
    <path d="M26.925 23.861a.813.813 0 0 0-.075.068l.078.174.1-.01-.103-.232z" fill="url(#p4f8a0t8paC)"/>
    <path d="M27.945 25.465c.163-.114.195-.285.094-.513-.078-.175-.242-.304-.494-.387l.047.105c.18.082.302.193.365.337.083.186.077.335-.018.445l.006.013z" fill="url(#idm3q2fd8aD)"/>
    <path d="M28.125 26.215c-.003 0-.03.013-.082.035a.242.242 0 0 1-.077.026 50.062 50.062 0 0 0-.21-.432l-.006-.015a1.016 1.016 0 0 1-.475-.114c-.166-.08-.272-.172-.318-.277-.037-.084-.05-.14-.041-.169.01-.03.037-.063.083-.098-.095.056-.15.107-.164.153-.01.03.004.085.04.169.047.105.153.196.318.277.166.08.324.119.476.114l.006.014c.086.175.155.32.21.433.015 0 .041-.01.077-.026l.082-.035a.945.945 0 0 0 .114-.075l-.033.02z" fill="url(#diya1yls6aE)"/>
    <path d="m27.31 24.988.23.54.014.047a.4.4 0 0 0 .095-.004l-.027-.098a68.487 68.487 0 0 1-.23-.54c-.068-.16-.135-.31-.2-.45a1.986 1.986 0 0 1-.384-.11.574.574 0 0 1-.293-.29c-.081-.183.01-.36.272-.534l-.156-.352a.283.283 0 0 0-.064.01c-.014.004-.024.01-.03.017l.17.38c-.264.174-.355.35-.274.533.057.129.155.226.293.29.076.036.204.073.384.111.066.139.133.289.2.45z" fill="url(#vkolbncviaF)"/>
    <path d="M22.04 27.917c.622.244 1.2.81 1.538 1.584.57 1.31.231 2.72-.757 3.15l-.02.008a29.61 29.61 0 0 1-.772.268 1.672 1.672 0 0 1-1.075-.074c-.61-.24-1.177-.795-1.508-1.554-.524-1.204-.265-2.495.568-3 .043-.025.367-.196.545-.287.063-.039.128-.074.197-.104.404-.176.854-.16 1.284.009z" fill="#fff"/>
    <path d="M22.04 27.917c.622.244 1.2.81 1.538 1.584.57 1.31.231 2.72-.757 3.15l-.02.008a29.61 29.61 0 0 1-.772.268 1.672 1.672 0 0 1-1.075-.074c-.61-.24-1.177-.795-1.508-1.554-.524-1.204-.265-2.495.568-3 .043-.025.367-.196.545-.287.063-.039.128-.074.197-.104.404-.176.854-.16 1.284.009z" fill="#000"/>
    <path d="M22.971 29.77c.562 1.291-.135 2.895-.135 2.895-.06.026-.734.26-.797.278-.941.267-2.07-.427-2.597-1.637-.526-1.211-.266-2.51.571-3.017.056-.034.6-.318.661-.345 0 0 1.735.534 2.297 1.825z" fill="url(#082hw9el4aG)"/>
    <path d="M23.597 29.497c.573 1.317.233 2.736-.76 3.168-.995.432-2.264-.284-2.838-1.602-.573-1.317-.233-2.735.76-3.168.994-.432 2.264.285 2.838 1.602z" fill="url(#sp5v8lkwiaH)"/>
    <path d="M23.338 29.61c.49 1.128.22 2.333-.606 2.693-.826.36-1.894-.264-2.385-1.391-.491-1.127-.22-2.334.606-2.693.827-.36 1.894.263 2.385 1.39z" fill="url(#kwg050g6oaI)"/>
    <path d="M23.338 29.61c-.491-1.128-1.558-1.75-2.384-1.391l-.06.028c.818-.304 1.846.314 2.325 1.415.479 1.1.231 2.274-.548 2.665a.808.808 0 0 0 .06-.025c.826-.359 1.098-1.565.607-2.692z" fill="url(#5h9z2b3caaJ)"/>
    <path d="M22.113 31.918c-.015.015-.073.032-.174.047-.003 0-.033 0-.09.003a.259.259 0 0 1-.082-.005c-.008-.124-.02-.284-.036-.478v-.016a1.01 1.01 0 0 1-.402-.28c-.124-.135-.188-.26-.194-.374-.004-.092.004-.15.025-.174.035-.044.126-.075.274-.092.013.024.021.054.024.094.003.027.004.064.003.113-.001.051-.002.084-.001.098.008.186.098.299.27.337l.012-.102-.018-.586c-.003-.175-.01-.338-.02-.492-.154-.1-.26-.182-.317-.243a.575.575 0 0 1-.167-.378c-.009-.199.141-.33.45-.395l-.019-.415c.008-.005.02-.007.035-.006a.418.418 0 0 1 .13.04l.158.059a.326.326 0 0 0-.01.073c.004.088.008.174.009.258.132.06.262.15.387.27l.004.036c.003.02.005.036.005.05.004.086-.038.13-.126.133a7.309 7.309 0 0 1-.11-.097c-.053-.05-.096-.076-.13-.078-.008 0-.017 0-.024.005l.003.216-.004.099a.857.857 0 0 0 0 .128v.013c.386.287.587.595.601.927a.834.834 0 0 1-.12.467.626.626 0 0 1-.384.31l.038.435zm-.418-2.33-.011-.253a.71.71 0 0 0-.101.038c-.036.032-.053.061-.052.087.001.024.021.057.06.099l.104.03zm.308.629.029.808c0 .025.004.084.013.176.194-.047.286-.195.275-.443-.008-.19-.114-.371-.317-.541z" fill="url(#4cj4c9v6daK)"/>
    <path d="M21.983 31.072c0 .025.004.084.014.175a.345.345 0 0 0 .19-.11.385.385 0 0 1-.142.064 2.034 2.034 0 0 1-.013-.175 59.67 59.67 0 0 0-.025-.715 1.195 1.195 0 0 0-.053-.046c.012.278.022.548.029.807zM21.766 28.66l.159.059a.338.338 0 0 0-.01.073l.009.258c.132.06.261.15.387.27a.59.59 0 0 1 .01.085c0 .03-.004.054-.013.073.043-.02.064-.058.061-.119a.422.422 0 0 0-.005-.05.296.296 0 0 1-.004-.035 1.38 1.38 0 0 0-.387-.27 5.983 5.983 0 0 0-.01-.259.39.39 0 0 1 .011-.073l-.159-.059a.422.422 0 0 0-.13-.04.062.062 0 0 0-.033.005l.002.045a.49.49 0 0 1 .112.038zM21.62 29.041v-.035c-.155.038-.264.095-.329.17a.782.782 0 0 1 .33-.135zM21.459 30.853l.002-.098c0-.048 0-.085-.003-.113a.22.22 0 0 0-.024-.093c-.147.017-.24.048-.275.092l-.007.014a.64.64 0 0 1 .234-.059c.013.023.02.053.023.092.003.027.004.065.003.113a2.036 2.036 0 0 0-.002.099c.009.187.099.299.272.337l.007-.059c-.145-.047-.222-.154-.23-.325zM22.579 30.705c-.014-.332-.215-.641-.601-.928v-.012a.987.987 0 0 1 0-.128c0-.06.002-.092.003-.099l-.003-.169a.085.085 0 0 0-.023-.005c-.01 0-.018 0-.026.004l.003.217-.003.098a.873.873 0 0 0 0 .129v.013c.386.286.587.595.601.927a.834.834 0 0 1-.224.608.836.836 0 0 0 .273-.654zM22.026 31.529l.037.411a.13.13 0 0 0 .05-.023l-.036-.404c-.016.006-.033.012-.051.016zM21.534 29.42c-.035.032-.052.061-.051.087 0 .024.02.056.06.099l.103.03-.002-.062-.053-.015c-.039-.042-.059-.075-.06-.099 0-.015.005-.03.016-.045l-.013.005z" fill="#FFF200"/>
    <path d="M22.14 29.513a.141.141 0 0 0 .088-.027l-.101-.09c-.053-.05-.097-.076-.13-.079-.01 0-.018 0-.026.005l.001.047a.527.527 0 0 1 .059.048c.069.061.105.094.109.096z" fill="url(#gffikkngzaL)"/>
    <path d="M21.677 29.335a.78.78 0 0 0-.094.035l.008.19.098.029-.012-.254z" fill="url(#hdkx8rq2taM)"/>
    <path d="M22.039 31.201c.194-.046.286-.194.275-.443-.008-.19-.114-.371-.318-.54l.005.114c.137.142.21.29.217.447.01.204-.051.34-.18.408v.014z" fill="url(#p4ldthkkraN)"/>
    <path d="m21.932 31.965-.09.003a.237.237 0 0 1-.08-.004 54.223 54.223 0 0 0-.037-.48v-.015a1.02 1.02 0 0 1-.402-.28c-.125-.135-.19-.26-.194-.374-.004-.092.004-.15.024-.173.02-.025.058-.045.113-.061-.109.017-.179.045-.208.082-.02.024-.028.081-.024.173.005.114.07.238.193.374.125.135.259.229.402.28v.016c.016.193.028.354.037.479.015.005.042.006.082.005.056-.004.086-.004.09-.004a.941.941 0 0 0 .132-.027l-.038.006z" fill="url(#ky4leicdbaO)"/>
    <path d="m21.622 30.525.018.586-.005.05a.402.402 0 0 0 .09.03l.01-.1-.017-.587a11.06 11.06 0 0 0-.021-.492 1.987 1.987 0 0 1-.317-.243.571.571 0 0 1-.165-.379c-.01-.199.14-.33.448-.395l-.016-.385a.283.283 0 0 0-.064-.015.06.06 0 0 0-.033.006l.017.415c-.308.065-.458.196-.449.395a.572.572 0 0 0 .166.378c.059.061.164.142.317.244.011.153.018.317.021.492z" fill="url(#jujn072x3aP)"/>
    <path d="m23.636 22.999 1.201-2.35.088 2.638 2.636-.135-2.24 1.395 1.435 2.216-2.329-1.243-1.201 2.35-.088-2.637-2.636.134 2.24-1.395-1.434-2.215 2.328 1.242z" fill="#F59C00"/>
    <path d="m23.789 23.485.737-1.442.055 1.62 1.617-.084-1.374.857.88 1.36-1.43-.762-.737 1.443-.054-1.62-1.618.083 1.375-.857-.881-1.36 1.43.762z" fill="#F5DE00"/>
    <path d="m23.915 23.888.354-.692.026.777.776-.04-.66.412.423.652-.686-.366-.354.693-.026-.777-.776.04.66-.412-.423-.652.686.365z" fill="#fff"/>
    <path d="M24.029 28.634a4.384 4.384 0 1 0 0-8.768 4.384 4.384 0 0 0 0 8.768z" fill="url(#10azoxr38aQ)"/>
    <path opacity=".32" d="M18.973 25.837a5.3 5.3 0 1 1 10.114-3.173 5.3 5.3 0 0 1-10.114 3.173z" fill="url(#fkg0sp3uwaR)"/>
    <path d="m15.61 16.09 1.201-2.35.089 2.637 2.636-.135-2.24 1.396 1.434 2.215-2.328-1.243-1.202 2.35-.088-2.637-2.636.134 2.24-1.394-1.434-2.216 2.328 1.243z" fill="#F59C00"/>
    <path d="m15.763 16.576.738-1.443.054 1.62 1.618-.083-1.375.856.88 1.36-1.43-.762-.737 1.443-.054-1.62-1.618.083 1.375-.857-.88-1.36 1.429.763z" fill="#F5DE00"/>
    <path d="m15.89 16.979.353-.693.026.777.777-.04-.66.412.422.652-.686-.365-.353.691-.026-.777-.777.04.66-.41-.422-.653.685.366z" fill="#fff"/>
    <path d="M16.003 21.724a4.384 4.384 0 1 0 0-8.768 4.384 4.384 0 0 0 0 8.768z" fill="url(#sf3i0ndreaS)"/>
    <path opacity=".32" d="M16.003 22.639a5.299 5.299 0 1 0 0-10.598 5.299 5.299 0 0 0 0 10.598z" fill="url(#j71mcrl7haT)"/>
    <path d="m32.065 15.264 1.2-2.35.089 2.638 2.636-.134-2.24 1.395 1.434 2.215-2.328-1.242-1.202 2.35-.087-2.638-2.636.135 2.24-1.395-1.436-2.216 2.33 1.242z" fill="#F59C00"/>
    <path d="m32.217 15.75.738-1.441.054 1.62 1.618-.084-1.375.857.881 1.36-1.43-.763-.738 1.443-.054-1.62-1.617.083 1.374-.856-.88-1.36 1.43.761z" fill="#F5DE00"/>
    <path d="m32.343 16.154.355-.692.026.777.776-.04-.66.41.423.654-.686-.366-.354.691-.026-.777-.776.04.66-.41-.424-.653.686.366z" fill="#fff"/>
    <path d="M32.457 20.9a4.384 4.384 0 1 0 0-8.768 4.384 4.384 0 0 0 0 8.768z" fill="url(#xaszgozriaU)"/>
    <path opacity=".32" d="M32.457 21.815a5.299 5.299 0 1 0 0-10.598 5.299 5.299 0 0 0 0 10.598z" fill="url(#y2f07ecy2aV)"/>
    <defs>
        <linearGradient id="xhxzspa13a" x1="39.586" y1="1.533" x2="19.938" y2="31.921" gradientUnits="userSpaceOnUse">
            <stop offset=".485" stop-color="#FF0"/>
            <stop offset=".527" stop-color="#FDF800"/>
            <stop offset=".688" stop-color="#F7E400"/>
            <stop offset=".847" stop-color="#F3D700"/>
            <stop offset="1" stop-color="#F2D300"/>
        </linearGradient>
        <linearGradient id="z8kowo5snb" x1="32.066" y1="24.612" x2="29.532" y2="24.612" gradientUnits="userSpaceOnUse">
            <stop stop-color="#A65200"/>
            <stop offset=".127" stop-color="#A15000"/>
            <stop offset=".277" stop-color="#934A00"/>
            <stop offset=".439" stop-color="#7B4000"/>
            <stop offset=".608" stop-color="#5A3200"/>
            <stop offset=".782" stop-color="#302000"/>
            <stop offset=".818" stop-color="#261C00"/>
            <stop offset="1" stop-color="#492600"/>
        </linearGradient>
        <linearGradient id="oijcz5oy3c" x1="33.233" y1="31.225" x2="22.15" y2="22.148" gradientUnits="userSpaceOnUse">
            <stop stop-color="#A65200" stop-opacity="0"/>
            <stop offset=".411" stop-color="#783800" stop-opacity=".411"/>
            <stop offset=".797" stop-color="#522400" stop-opacity=".797"/>
            <stop offset="1" stop-color="#441C00"/>
        </linearGradient>
        <linearGradient id="2dr8t149yd" x1="-.694" y1="33.118" x2="16.543" y2="34.075" gradientUnits="userSpaceOnUse">
            <stop offset=".449" stop-color="#FF0"/>
            <stop offset=".468" stop-color="#FDF700"/>
            <stop offset=".497" stop-color="#F6E100"/>
            <stop offset=".534" stop-color="#ECBD00"/>
            <stop offset=".576" stop-color="#DD8C00"/>
            <stop offset=".595" stop-color="#D67300"/>
            <stop offset=".662" stop-color="#DE8F00"/>
            <stop offset=".75" stop-color="#E7AD00"/>
            <stop offset=".837" stop-color="#EDC200"/>
            <stop offset=".921" stop-color="#F1CF00"/>
            <stop offset="1" stop-color="#F2D300"/>
        </linearGradient>
        <linearGradient id="9kn8z2upze" x1="26.976" y1="24.252" x2="32.198" y2="39.404" gradientUnits="userSpaceOnUse">
            <stop stop-color="#FF0"/>
            <stop offset=".144" stop-color="#F4DA00"/>
            <stop offset=".319" stop-color="#E9B500"/>
            <stop offset=".493" stop-color="#E19800"/>
            <stop offset=".666" stop-color="#DB8400"/>
            <stop offset=".836" stop-color="#D77700"/>
            <stop offset="1" stop-color="#D67300"/>
        </linearGradient>
        <linearGradient id="mme17gyb3f" x1="18.369" y1="37.257" x2="21.74" y2="37.273" gradientUnits="userSpaceOnUse">
            <stop stop-color="#FFA800" stop-opacity="0"/>
            <stop offset=".521" stop-color="#FF0" stop-opacity=".62"/>
            <stop offset=".538" stop-color="#FFFA00" stop-opacity=".598"/>
            <stop offset=".656" stop-color="#FD0" stop-opacity=".445"/>
            <stop offset=".773" stop-color="#FFC900" stop-opacity=".293"/>
            <stop offset=".889" stop-color="#FFBC00" stop-opacity=".144"/>
            <stop offset="1" stop-color="#FFB800" stop-opacity="0"/>
        </linearGradient>
        <linearGradient id="lrwfqykreg" x1="20.951" y1="9.955" x2="22.202" y2="13.5" gradientUnits="userSpaceOnUse">
            <stop stop-color="#A65200"/>
            <stop offset=".208" stop-color="#A15000"/>
            <stop offset=".454" stop-color="#934900"/>
            <stop offset=".717" stop-color="#7B3D00"/>
            <stop offset=".818" stop-color="#703800"/>
            <stop offset="1" stop-color="#7F3F00"/>
        </linearGradient>
        <linearGradient id="mn8h69gzlh" x1="27.807" y1="25.334" x2="31.64" y2="36.454" gradientUnits="userSpaceOnUse">
            <stop stop-color="#A65200"/>
            <stop offset=".208" stop-color="#A15000"/>
            <stop offset=".454" stop-color="#934900"/>
            <stop offset=".717" stop-color="#7B3D00"/>
            <stop offset=".818" stop-color="#703800"/>
            <stop offset="1" stop-color="#7F3F00"/>
        </linearGradient>
        <linearGradient id="dbfjvmn8ni" x1="11.156" y1="20.541" x2="18.138" y2="40.798" gradientUnits="userSpaceOnUse">
            <stop stop-color="#A65200"/>
            <stop offset=".208" stop-color="#A15000"/>
            <stop offset=".454" stop-color="#934900"/>
            <stop offset=".717" stop-color="#7B3D00"/>
            <stop offset=".818" stop-color="#703800"/>
            <stop offset="1" stop-color="#7F3F00"/>
        </linearGradient>
        <linearGradient id="7fxxtgn8oj" x1="32.098" y1="25.574" x2="29.75" y2="27.862" gradientUnits="userSpaceOnUse">
            <stop offset=".478" stop-color="#FF0"/>
            <stop offset=".495" stop-color="#FDF700"/>
            <stop offset=".522" stop-color="#F6E100"/>
            <stop offset=".554" stop-color="#ECBD00"/>
            <stop offset=".591" stop-color="#DD8C00"/>
            <stop offset=".607" stop-color="#D67300"/>
            <stop offset=".673" stop-color="#DE8F00"/>
            <stop offset=".758" stop-color="#E7AD00"/>
            <stop offset=".842" stop-color="#EDC200"/>
            <stop offset=".923" stop-color="#F1CF00"/>
            <stop offset="1" stop-color="#F2D300"/>
        </linearGradient>
        <linearGradient id="zgmp05rjhk" x1="25.807" y1="32.866" x2="33.299" y2="27.595" gradientUnits="userSpaceOnUse">
            <stop stop-color="#FF0"/>
            <stop offset=".144" stop-color="#F4DA00"/>
            <stop offset=".319" stop-color="#E9B500"/>
            <stop offset=".493" stop-color="#E19800"/>
            <stop offset=".666" stop-color="#DB8400"/>
            <stop offset=".836" stop-color="#D77700"/>
            <stop offset="1" stop-color="#D67300"/>
        </linearGradient>
        <linearGradient id="4y0measmgl" x1="27.542" y1="34.904" x2="34.489" y2="29.914" gradientUnits="userSpaceOnUse">
            <stop stop-color="#FF0"/>
            <stop offset=".144" stop-color="#F4DA00"/>
            <stop offset=".319" stop-color="#E9B500"/>
            <stop offset=".493" stop-color="#E19800"/>
            <stop offset=".666" stop-color="#DB8400"/>
            <stop offset=".836" stop-color="#D77700"/>
            <stop offset="1" stop-color="#D67300"/>
        </linearGradient>
        <linearGradient id="55vavy1mjm" x1="27.069" y1="33.687" x2="30.316" y2="31.354" gradientUnits="userSpaceOnUse">
            <stop stop-color="#FF0"/>
            <stop offset=".144" stop-color="#F4DA00"/>
            <stop offset=".319" stop-color="#E9B500"/>
            <stop offset=".493" stop-color="#E19800"/>
            <stop offset=".666" stop-color="#DB8400"/>
            <stop offset=".836" stop-color="#D77700"/>
            <stop offset="1" stop-color="#D67300"/>
        </linearGradient>
        <linearGradient id="jwgxsjz2pn" x1="14.457" y1="28.535" x2="13.627" y2="29.63" gradientUnits="userSpaceOnUse">
            <stop offset=".449" stop-color="#FF0"/>
            <stop offset=".468" stop-color="#FDF700"/>
            <stop offset=".497" stop-color="#F6E100"/>
            <stop offset=".534" stop-color="#ECBD00"/>
            <stop offset=".576" stop-color="#DD8C00"/>
            <stop offset=".595" stop-color="#D67300"/>
            <stop offset=".662" stop-color="#DE8F00"/>
            <stop offset=".75" stop-color="#E7AD00"/>
            <stop offset=".837" stop-color="#EDC200"/>
            <stop offset=".921" stop-color="#F1CF00"/>
            <stop offset="1" stop-color="#F2D300"/>
        </linearGradient>
        <linearGradient id="8cyj8gkcmo" x1="15.391" y1="29.241" x2="14.569" y2="30.326" gradientUnits="userSpaceOnUse">
            <stop stop-color="#FF0"/>
            <stop offset=".144" stop-color="#F4DA00"/>
            <stop offset=".319" stop-color="#E9B500"/>
            <stop offset=".493" stop-color="#E19800"/>
            <stop offset=".666" stop-color="#DB8400"/>
            <stop offset=".836" stop-color="#D77700"/>
            <stop offset="1" stop-color="#D67300"/>
        </linearGradient>
        <linearGradient id="98kp4l4vmp" x1="14.849" y1="30.665" x2="13.39" y2="33.316" gradientUnits="userSpaceOnUse">
            <stop stop-color="#FF0"/>
            <stop offset=".144" stop-color="#F4DA00"/>
            <stop offset=".319" stop-color="#E9B500"/>
            <stop offset=".493" stop-color="#E19800"/>
            <stop offset=".666" stop-color="#DB8400"/>
            <stop offset=".836" stop-color="#D77700"/>
            <stop offset="1" stop-color="#D67300"/>
        </linearGradient>
        <linearGradient id="wzzwn4idiq" x1="15.395" y1="33.707" x2="15.139" y2="32.277" gradientUnits="userSpaceOnUse">
            <stop offset=".478" stop-color="#FF0"/>
            <stop offset=".495" stop-color="#FDF700"/>
            <stop offset=".522" stop-color="#F6E100"/>
            <stop offset=".554" stop-color="#ECBD00"/>
            <stop offset=".591" stop-color="#DD8C00"/>
            <stop offset=".607" stop-color="#D67300"/>
            <stop offset=".673" stop-color="#DE8F00"/>
            <stop offset=".758" stop-color="#E7AD00"/>
            <stop offset=".842" stop-color="#EDC200"/>
            <stop offset=".923" stop-color="#F1CF00"/>
            <stop offset="1" stop-color="#F2D300"/>
        </linearGradient>
        <linearGradient id="pqr5vveb1r" x1="13.419" y1="34.057" x2="13.164" y2="32.627" gradientUnits="userSpaceOnUse">
            <stop offset=".478" stop-color="#FF0"/>
            <stop offset=".495" stop-color="#FDF700"/>
            <stop offset=".522" stop-color="#F6E100"/>
            <stop offset=".554" stop-color="#ECBD00"/>
            <stop offset=".591" stop-color="#DD8C00"/>
            <stop offset=".607" stop-color="#D67300"/>
            <stop offset=".673" stop-color="#DE8F00"/>
            <stop offset=".758" stop-color="#E7AD00"/>
            <stop offset=".842" stop-color="#EDC200"/>
            <stop offset=".923" stop-color="#F1CF00"/>
            <stop offset="1" stop-color="#F2D300"/>
        </linearGradient>
        <linearGradient id="sycvctvmys" x1="23.1" y1="9.813" x2="24.578" y2="13.05" gradientUnits="userSpaceOnUse">
            <stop offset=".478" stop-color="#FF0"/>
            <stop offset=".495" stop-color="#FDF700"/>
            <stop offset=".522" stop-color="#F6E100"/>
            <stop offset=".554" stop-color="#ECBD00"/>
            <stop offset=".591" stop-color="#DD8C00"/>
            <stop offset=".607" stop-color="#D67300"/>
            <stop offset=".673" stop-color="#DE8F00"/>
            <stop offset=".758" stop-color="#E7AD00"/>
            <stop offset=".842" stop-color="#EDC200"/>
            <stop offset=".923" stop-color="#F1CF00"/>
            <stop offset="1" stop-color="#F2D300"/>
        </linearGradient>
        <linearGradient id="vl5d4g8plt" x1="2.871" y1="28.644" x2="15.629" y2="23.174" gradientUnits="userSpaceOnUse">
            <stop offset=".449" stop-color="#FF0"/>
            <stop offset=".468" stop-color="#FDF700"/>
            <stop offset=".497" stop-color="#F6E100"/>
            <stop offset=".534" stop-color="#ECBD00"/>
            <stop offset=".576" stop-color="#DD8C00"/>
            <stop offset=".595" stop-color="#D67300"/>
            <stop offset=".662" stop-color="#DE8F00"/>
            <stop offset=".75" stop-color="#E7AD00"/>
            <stop offset=".837" stop-color="#EDC200"/>
            <stop offset=".921" stop-color="#F1CF00"/>
            <stop offset="1" stop-color="#F2D300"/>
        </linearGradient>
        <linearGradient id="9w4xnqkhpu" x1="6.429" y1="23.789" x2="13.693" y2="20.675" gradientUnits="userSpaceOnUse">
            <stop stop-color="#A65200"/>
            <stop offset=".208" stop-color="#A15000"/>
            <stop offset=".454" stop-color="#934900"/>
            <stop offset=".717" stop-color="#7B3D00"/>
            <stop offset=".818" stop-color="#703800"/>
            <stop offset="1" stop-color="#7F3F00"/>
        </linearGradient>
        <linearGradient id="tzberbf8lv" x1="36.314" y1="22.296" x2="25.442" y2="18.39" gradientUnits="userSpaceOnUse">
            <stop stop-color="#703800"/>
            <stop offset="1" stop-color="#2B0300"/>
        </linearGradient>
        <linearGradient id="udnuhv7xdw" x1="23.668" y1="21.569" x2="23.346" y2="27.103" gradientUnits="userSpaceOnUse">
            <stop offset=".485" stop-color="#FF0"/>
            <stop offset=".527" stop-color="#FDF800"/>
            <stop offset=".688" stop-color="#F7E400"/>
            <stop offset=".847" stop-color="#F3D700"/>
            <stop offset="1" stop-color="#F2D300"/>
        </linearGradient>
        <linearGradient id="x34soykb1x" x1="23.064" y1="25.114" x2="23.326" y2="29.011" gradientUnits="userSpaceOnUse">
            <stop stop-color="#FF0"/>
            <stop offset=".144" stop-color="#F4DA00"/>
            <stop offset=".319" stop-color="#E9B500"/>
            <stop offset=".493" stop-color="#E19800"/>
            <stop offset=".666" stop-color="#DB8400"/>
            <stop offset=".836" stop-color="#D77700"/>
            <stop offset="1" stop-color="#D67300"/>
        </linearGradient>
        <linearGradient id="z5pa9qcf1y" x1="16.088" y1="29.831" x2="23.717" y2="27.959" gradientUnits="userSpaceOnUse">
            <stop offset=".449" stop-color="#FF0"/>
            <stop offset=".468" stop-color="#FDF700"/>
            <stop offset=".497" stop-color="#F6E100"/>
            <stop offset=".534" stop-color="#ECBD00"/>
            <stop offset=".576" stop-color="#DD8C00"/>
            <stop offset=".595" stop-color="#D67300"/>
            <stop offset=".662" stop-color="#DE8F00"/>
            <stop offset=".75" stop-color="#E7AD00"/>
            <stop offset=".837" stop-color="#EDC200"/>
            <stop offset=".921" stop-color="#F1CF00"/>
            <stop offset="1" stop-color="#F2D300"/>
        </linearGradient>
        <linearGradient id="hd5evsemnz" x1="25.434" y1="25.952" x2="28.408" y2="28.577" gradientUnits="userSpaceOnUse">
            <stop stop-color="#FF0"/>
            <stop offset=".144" stop-color="#F4DA00"/>
            <stop offset=".319" stop-color="#E9B500"/>
            <stop offset=".493" stop-color="#E19800"/>
            <stop offset=".666" stop-color="#DB8400"/>
            <stop offset=".836" stop-color="#D77700"/>
            <stop offset="1" stop-color="#D67300"/>
        </linearGradient>
        <linearGradient id="jhk5arghpA" x1="29.599" y1="37.754" x2="22.758" y2="23.882" gradientUnits="userSpaceOnUse">
            <stop offset=".442" stop-color="#FF0"/>
            <stop offset=".556" stop-color="#F8E700" stop-opacity=".795"/>
            <stop offset=".795" stop-color="#E6AB00" stop-opacity=".367"/>
            <stop offset="1" stop-color="#D67300" stop-opacity="0"/>
        </linearGradient>
        <linearGradient id="r1lye4347B" x1="24.231" y1="29.023" x2="23.341" y2="25.067" gradientUnits="userSpaceOnUse">
            <stop offset=".442" stop-color="#FF0"/>
            <stop offset=".556" stop-color="#F8E700" stop-opacity=".795"/>
            <stop offset=".795" stop-color="#E6AB00" stop-opacity=".367"/>
            <stop offset="1" stop-color="#D67300" stop-opacity="0"/>
        </linearGradient>
        <linearGradient id="cfc6i27caC" x1="25.89" y1="28.681" x2="26.735" y2="28.385" gradientUnits="userSpaceOnUse">
            <stop stop-color="#FFA800" stop-opacity="0"/>
            <stop offset=".521" stop-color="#FF0" stop-opacity=".62"/>
            <stop offset=".538" stop-color="#FFFA00" stop-opacity=".598"/>
            <stop offset=".656" stop-color="#FD0" stop-opacity=".445"/>
            <stop offset=".773" stop-color="#FFC900" stop-opacity=".293"/>
            <stop offset=".889" stop-color="#FFBC00" stop-opacity=".144"/>
            <stop offset="1" stop-color="#FFB800" stop-opacity="0"/>
        </linearGradient>
        <linearGradient id="qhelncdmrD" x1="17.189" y1="26.013" x2="20.043" y2="26.013" gradientUnits="userSpaceOnUse">
            <stop offset=".595" stop-color="#D67300"/>
            <stop offset=".662" stop-color="#DE8F00"/>
            <stop offset=".75" stop-color="#E7AD00"/>
            <stop offset=".837" stop-color="#EDC200"/>
            <stop offset=".921" stop-color="#F1CF00"/>
            <stop offset="1" stop-color="#F2D300"/>
        </linearGradient>
        <linearGradient id="f7vcjly1jE" x1="19.022" y1="25.537" x2="15.291" y2="26.691" gradientUnits="userSpaceOnUse">
            <stop stop-color="#FF0"/>
            <stop offset=".144" stop-color="#F4DA00"/>
            <stop offset=".319" stop-color="#E9B500"/>
            <stop offset=".493" stop-color="#E19800"/>
            <stop offset=".666" stop-color="#DB8400"/>
            <stop offset=".836" stop-color="#D77700"/>
            <stop offset="1" stop-color="#D67300"/>
        </linearGradient>
        <linearGradient id="tqtan3zheF" x1="12.823" y1="19.837" x2="16.405" y2="26.828" gradientUnits="userSpaceOnUse">
            <stop offset=".449" stop-color="#FF0"/>
            <stop offset=".468" stop-color="#FDF700"/>
            <stop offset=".497" stop-color="#F6E100"/>
            <stop offset=".534" stop-color="#ECBD00"/>
            <stop offset=".576" stop-color="#DD8C00"/>
            <stop offset=".595" stop-color="#D67300"/>
            <stop offset=".662" stop-color="#DE8F00"/>
            <stop offset=".75" stop-color="#E7AD00"/>
            <stop offset=".837" stop-color="#EDC200"/>
            <stop offset=".921" stop-color="#F1CF00"/>
            <stop offset="1" stop-color="#F2D300"/>
        </linearGradient>
        <linearGradient id="lsao22d72G" x1="18.754" y1="28.037" x2="16.886" y2="31.536" gradientUnits="userSpaceOnUse">
            <stop stop-color="#FF0"/>
            <stop offset=".144" stop-color="#F4DA00"/>
            <stop offset=".319" stop-color="#E9B500"/>
            <stop offset=".493" stop-color="#E19800"/>
            <stop offset=".666" stop-color="#DB8400"/>
            <stop offset=".836" stop-color="#D77700"/>
            <stop offset="1" stop-color="#D67300"/>
        </linearGradient>
        <linearGradient id="pec4b63imH" x1="8.231" y1="34.813" x2="20.152" y2="24.954" gradientUnits="userSpaceOnUse">
            <stop offset=".442" stop-color="#FF0"/>
            <stop offset=".556" stop-color="#F8E700" stop-opacity=".795"/>
            <stop offset=".795" stop-color="#E6AB00" stop-opacity=".367"/>
            <stop offset="1" stop-color="#D67300" stop-opacity="0"/>
        </linearGradient>
        <linearGradient id="e4020nmw5I" x1="15.489" y1="27.574" x2="19.133" y2="25.795" gradientUnits="userSpaceOnUse">
            <stop offset=".442" stop-color="#FF0"/>
            <stop offset=".556" stop-color="#F8E700" stop-opacity=".795"/>
            <stop offset=".795" stop-color="#E6AB00" stop-opacity=".367"/>
            <stop offset="1" stop-color="#D67300" stop-opacity="0"/>
        </linearGradient>
        <linearGradient id="dwvloptlpJ" x1="16.204" y1="29.11" x2="16.687" y2="29.863" gradientUnits="userSpaceOnUse">
            <stop stop-color="#FFA800" stop-opacity="0"/>
            <stop offset=".521" stop-color="#FF0" stop-opacity=".62"/>
            <stop offset=".538" stop-color="#FFFA00" stop-opacity=".598"/>
            <stop offset=".656" stop-color="#FD0" stop-opacity=".445"/>
            <stop offset=".773" stop-color="#FFC900" stop-opacity=".293"/>
            <stop offset=".889" stop-color="#FFBC00" stop-opacity=".144"/>
            <stop offset="1" stop-color="#FFB800" stop-opacity="0"/>
        </linearGradient>
        <linearGradient id="kk9r6vrqhK" x1="28.737" y1="25.216" x2="32.739" y2="27.488" gradientUnits="userSpaceOnUse">
            <stop offset=".595" stop-color="#7E3F00"/>
            <stop offset=".614" stop-color="#884800"/>
            <stop offset=".694" stop-color="#AE6B00"/>
            <stop offset=".774" stop-color="#CC8600"/>
            <stop offset=".852" stop-color="#E19900"/>
            <stop offset=".928" stop-color="#EEA500"/>
            <stop offset="1" stop-color="#F2A900"/>
        </linearGradient>
        <linearGradient id="koohsqtbvL" x1="32.895" y1="18.224" x2="32.02" y2="23.699" gradientUnits="userSpaceOnUse">
            <stop offset=".485" stop-color="#FF0"/>
            <stop offset=".527" stop-color="#FDF800"/>
            <stop offset=".688" stop-color="#F7E400"/>
            <stop offset=".847" stop-color="#F3D700"/>
            <stop offset="1" stop-color="#F2D300"/>
        </linearGradient>
        <linearGradient id="l6qr1hxz3M" x1="31.938" y1="21.693" x2="31.809" y2="25.596" gradientUnits="userSpaceOnUse">
            <stop stop-color="#FF0"/>
            <stop offset=".144" stop-color="#F4DA00"/>
            <stop offset=".319" stop-color="#E9B500"/>
            <stop offset=".493" stop-color="#E19800"/>
            <stop offset=".666" stop-color="#DB8400"/>
            <stop offset=".836" stop-color="#D77700"/>
            <stop offset="1" stop-color="#D67300"/>
        </linearGradient>
        <linearGradient id="ajgfbntmpN" x1="30.053" y1="23.585" x2="34.055" y2="25.857" gradientUnits="userSpaceOnUse">
            <stop offset=".595" stop-color="#D67300"/>
            <stop offset=".662" stop-color="#DE8F00"/>
            <stop offset=".75" stop-color="#E7AD00"/>
            <stop offset=".837" stop-color="#EDC200"/>
            <stop offset=".921" stop-color="#F1CF00"/>
            <stop offset="1" stop-color="#F2D300"/>
        </linearGradient>
        <linearGradient id="k8gvot1z1O" x1="34.213" y1="22.764" x2="36.909" y2="25.672" gradientUnits="userSpaceOnUse">
            <stop stop-color="#FF0"/>
            <stop offset=".144" stop-color="#F4DA00"/>
            <stop offset=".319" stop-color="#E9B500"/>
            <stop offset=".493" stop-color="#E19800"/>
            <stop offset=".666" stop-color="#DB8400"/>
            <stop offset=".836" stop-color="#D77700"/>
            <stop offset="1" stop-color="#D67300"/>
        </linearGradient>
        <linearGradient id="rvlxt1phnP" x1="37.176" y1="34.923" x2="31.757" y2="20.436" gradientUnits="userSpaceOnUse">
            <stop offset=".442" stop-color="#FF0"/>
            <stop offset=".556" stop-color="#F8E700" stop-opacity=".795"/>
            <stop offset=".795" stop-color="#E6AB00" stop-opacity=".367"/>
            <stop offset="1" stop-color="#D67300" stop-opacity="0"/>
        </linearGradient>
        <linearGradient id="sivfb7ymlQ" x1="32.708" y1="25.698" x2="32.218" y2="21.673" gradientUnits="userSpaceOnUse">
            <stop offset=".442" stop-color="#FF0"/>
            <stop offset=".556" stop-color="#F8E700" stop-opacity=".795"/>
            <stop offset=".795" stop-color="#E6AB00" stop-opacity=".367"/>
            <stop offset="1" stop-color="#D67300" stop-opacity="0"/>
        </linearGradient>
        <linearGradient id="hhp8qn2rzR" x1="34.393" y1="25.525" x2="35.264" y2="25.315" gradientUnits="userSpaceOnUse">
            <stop stop-color="#FFA800" stop-opacity="0"/>
            <stop offset=".521" stop-color="#FF0" stop-opacity=".62"/>
            <stop offset=".538" stop-color="#FFFA00" stop-opacity=".598"/>
            <stop offset=".656" stop-color="#FD0" stop-opacity=".445"/>
            <stop offset=".773" stop-color="#FFC900" stop-opacity=".293"/>
            <stop offset=".889" stop-color="#FFBC00" stop-opacity=".144"/>
            <stop offset="1" stop-color="#FFB800" stop-opacity="0"/>
        </linearGradient>
        <linearGradient id="eh13yuzzuS" x1="22.189" y1="25.651" x2="25.972" y2="22.569" gradientUnits="userSpaceOnUse">
            <stop stop-color="#424F5B"/>
            <stop offset=".127" stop-color="#97A8B3"/>
            <stop offset=".442" stop-color="#4D5A64"/>
            <stop offset=".636" stop-color="#54616A"/>
            <stop offset=".723" stop-color="#A7ADB9"/>
            <stop offset=".794" stop-color="#97A8B3"/>
            <stop offset=".83" stop-color="#747F88"/>
            <stop offset="1" stop-color="#495660"/>
        </linearGradient>
        <linearGradient id="4wz9jg46lT" x1="24.012" y1="23.241" x2="25.215" y2="21.843" gradientUnits="userSpaceOnUse">
            <stop stop-color="#D4E3F0"/>
            <stop offset="1" stop-color="#6A7B8D"/>
        </linearGradient>
        <linearGradient id="51zlwe7poU" x1="23.938" y1="23.259" x2="25.134" y2="21.857" gradientUnits="userSpaceOnUse">
            <stop stop-color="#D4E3F0"/>
            <stop offset="1" stop-color="#6A7B8D"/>
        </linearGradient>
        <linearGradient id="lq1pfk22mW" x1="23.727" y1="23.701" x2="23.428" y2="23.386" gradientUnits="userSpaceOnUse">
            <stop stop-color="#D4E3F0"/>
            <stop offset="1" stop-color="#6A7B8D"/>
        </linearGradient>
        <linearGradient id="gs47vp89fX" x1="21.342" y1="24.631" x2="23.322" y2="23.23" gradientUnits="userSpaceOnUse">
            <stop stop-color="#424F5B"/>
            <stop offset=".127" stop-color="#97A8B3"/>
            <stop offset=".442" stop-color="#4D5A64"/>
            <stop offset=".636" stop-color="#54616A"/>
            <stop offset=".723" stop-color="#A7ADB9"/>
            <stop offset=".794" stop-color="#97A8B3"/>
            <stop offset=".83" stop-color="#747F88"/>
            <stop offset="1" stop-color="#495660"/>
        </linearGradient>
        <linearGradient id="kigdaz9a9Y" x1="21.591" y1="24.986" x2="23.573" y2="23.584" gradientUnits="userSpaceOnUse">
            <stop stop-color="#424F5B"/>
            <stop offset=".127" stop-color="#97A8B3"/>
            <stop offset=".442" stop-color="#4D5A64"/>
            <stop offset=".636" stop-color="#54616A"/>
            <stop offset=".723" stop-color="#A7ADB9"/>
            <stop offset=".794" stop-color="#97A8B3"/>
            <stop offset=".83" stop-color="#747F88"/>
            <stop offset="1" stop-color="#495660"/>
        </linearGradient>
        <linearGradient id="s5jfxgyp3Z" x1="21.568" y1="24.952" x2="23.549" y2="23.551" gradientUnits="userSpaceOnUse">
            <stop stop-color="#424F5B"/>
            <stop offset=".127" stop-color="#97A8B3"/>
            <stop offset=".442" stop-color="#4D5A64"/>
            <stop offset=".636" stop-color="#54616A"/>
            <stop offset=".723" stop-color="#A7ADB9"/>
            <stop offset=".794" stop-color="#97A8B3"/>
            <stop offset=".83" stop-color="#747F88"/>
            <stop offset="1" stop-color="#495660"/>
        </linearGradient>
        <linearGradient id="0zotfx96gaa" x1="22.009" y1="25.575" x2="23.989" y2="24.174" gradientUnits="userSpaceOnUse">
            <stop stop-color="#424F5B"/>
            <stop offset=".127" stop-color="#97A8B3"/>
            <stop offset=".442" stop-color="#4D5A64"/>
            <stop offset=".636" stop-color="#54616A"/>
            <stop offset=".723" stop-color="#A7ADB9"/>
            <stop offset=".794" stop-color="#97A8B3"/>
            <stop offset=".83" stop-color="#747F88"/>
            <stop offset="1" stop-color="#495660"/>
        </linearGradient>
        <linearGradient id="qb29n0ycfab" x1="21.666" y1="25.089" x2="23.646" y2="23.688" gradientUnits="userSpaceOnUse">
            <stop stop-color="#424F5B"/>
            <stop offset=".127" stop-color="#97A8B3"/>
            <stop offset=".442" stop-color="#4D5A64"/>
            <stop offset=".636" stop-color="#54616A"/>
            <stop offset=".723" stop-color="#A7ADB9"/>
            <stop offset=".794" stop-color="#97A8B3"/>
            <stop offset=".83" stop-color="#747F88"/>
            <stop offset="1" stop-color="#495660"/>
        </linearGradient>
        <linearGradient id="guvj8wd7hac" x1="21.539" y1="27.724" x2="23.526" y2="32.181" gradientUnits="userSpaceOnUse">
            <stop stop-color="#424F5B"/>
            <stop offset=".127" stop-color="#97A8B3"/>
            <stop offset=".442" stop-color="#4D5A64"/>
            <stop offset=".636" stop-color="#54616A"/>
            <stop offset=".723" stop-color="#A7ADB9"/>
            <stop offset=".794" stop-color="#97A8B3"/>
            <stop offset=".83" stop-color="#747F88"/>
            <stop offset="1" stop-color="#495660"/>
        </linearGradient>
        <linearGradient id="59e581ob9ad" x1="23.389" y1="30.113" x2="24.424" y2="31.64" gradientUnits="userSpaceOnUse">
            <stop stop-color="#D4E3F0"/>
            <stop offset="1" stop-color="#6A7B8D"/>
        </linearGradient>
        <linearGradient id="cpklniq48ae" x1="23.39" y1="30.037" x2="24.43" y2="31.558" gradientUnits="userSpaceOnUse">
            <stop stop-color="#D4E3F0"/>
            <stop offset="1" stop-color="#6A7B8D"/>
        </linearGradient>
        <linearGradient id="zycq4cgsxag" x1="23.02" y1="29.723" x2="23.402" y2="29.517" gradientUnits="userSpaceOnUse">
            <stop stop-color="#D4E3F0"/>
            <stop offset="1" stop-color="#6A7B8D"/>
        </linearGradient>
        <linearGradient id="nx10urvd3ah" x1="22.745" y1="27.172" x2="23.58" y2="29.45" gradientUnits="userSpaceOnUse">
            <stop stop-color="#424F5B"/>
            <stop offset=".127" stop-color="#97A8B3"/>
            <stop offset=".442" stop-color="#4D5A64"/>
            <stop offset=".636" stop-color="#54616A"/>
            <stop offset=".723" stop-color="#A7ADB9"/>
            <stop offset=".794" stop-color="#97A8B3"/>
            <stop offset=".83" stop-color="#747F88"/>
            <stop offset="1" stop-color="#495660"/>
        </linearGradient>
        <linearGradient id="98zvyt949ai" x1="22.338" y1="27.321" x2="23.174" y2="29.6" gradientUnits="userSpaceOnUse">
            <stop stop-color="#424F5B"/>
            <stop offset=".127" stop-color="#97A8B3"/>
            <stop offset=".442" stop-color="#4D5A64"/>
            <stop offset=".636" stop-color="#54616A"/>
            <stop offset=".723" stop-color="#A7ADB9"/>
            <stop offset=".794" stop-color="#97A8B3"/>
            <stop offset=".83" stop-color="#747F88"/>
            <stop offset="1" stop-color="#495660"/>
        </linearGradient>
        <linearGradient id="mo9f0elyaaj" x1="22.376" y1="27.309" x2="23.211" y2="29.585" gradientUnits="userSpaceOnUse">
            <stop stop-color="#424F5B"/>
            <stop offset=".127" stop-color="#97A8B3"/>
            <stop offset=".442" stop-color="#4D5A64"/>
            <stop offset=".636" stop-color="#54616A"/>
            <stop offset=".723" stop-color="#A7ADB9"/>
            <stop offset=".794" stop-color="#97A8B3"/>
            <stop offset=".83" stop-color="#747F88"/>
            <stop offset="1" stop-color="#495660"/>
        </linearGradient>
        <linearGradient id="uyzc8x7h6ak" x1="21.66" y1="27.571" x2="22.495" y2="29.848" gradientUnits="userSpaceOnUse">
            <stop stop-color="#424F5B"/>
            <stop offset=".127" stop-color="#97A8B3"/>
            <stop offset=".442" stop-color="#4D5A64"/>
            <stop offset=".636" stop-color="#54616A"/>
            <stop offset=".723" stop-color="#A7ADB9"/>
            <stop offset=".794" stop-color="#97A8B3"/>
            <stop offset=".83" stop-color="#747F88"/>
            <stop offset="1" stop-color="#495660"/>
        </linearGradient>
        <linearGradient id="5msy3zssnal" x1="22.219" y1="27.366" x2="23.054" y2="29.643" gradientUnits="userSpaceOnUse">
            <stop stop-color="#424F5B"/>
            <stop offset=".127" stop-color="#97A8B3"/>
            <stop offset=".442" stop-color="#4D5A64"/>
            <stop offset=".636" stop-color="#54616A"/>
            <stop offset=".723" stop-color="#A7ADB9"/>
            <stop offset=".794" stop-color="#97A8B3"/>
            <stop offset=".83" stop-color="#747F88"/>
            <stop offset="1" stop-color="#495660"/>
        </linearGradient>
        <linearGradient id="jderx894qam" x1="26.279" y1="22.919" x2="30.288" y2="21.267" gradientUnits="userSpaceOnUse">
            <stop stop-color="#CF7900"/>
            <stop offset=".127" stop-color="#FFC000"/>
            <stop offset=".264" stop-color="#FFCF00"/>
            <stop offset=".442" stop-color="#D27700"/>
            <stop offset=".636" stop-color="#E88800"/>
            <stop offset=".723" stop-color="#FDCA00"/>
            <stop offset=".83" stop-color="#FFA700"/>
            <stop offset="1" stop-color="#BD6A00"/>
        </linearGradient>
        <linearGradient id="eyo9ydalgan" x1="2.119" y1="28.272" x2=".948" y2="28.576" gradientUnits="userSpaceOnUse">
            <stop stop-color="#FFDE00"/>
            <stop offset="1" stop-color="#C77400"/>
        </linearGradient>
        <linearGradient id="nc94h6l3cao" x1="35.64" y1="25.886" x2="38.283" y2="27.389" gradientUnits="userSpaceOnUse">
            <stop stop-color="#FFDE00"/>
            <stop offset="1" stop-color="#C77400"/>
        </linearGradient>
        <linearGradient id="yh8682n1haq" x1="27.265" y1="21.71" x2="26.489" y2="21.862" gradientUnits="userSpaceOnUse">
            <stop stop-color="#FFDE00"/>
            <stop offset="1" stop-color="#C77400"/>
        </linearGradient>
        <linearGradient id="aed0bfslcar" x1="25.538" y1="21.772" x2="27.807" y2="21.066" gradientUnits="userSpaceOnUse">
            <stop stop-color="#964F00"/>
            <stop offset=".061" stop-color="#FFA800"/>
            <stop offset=".127" stop-color="#FFA800"/>
            <stop offset=".442" stop-color="#944D00"/>
            <stop offset=".636" stop-color="#9A5200"/>
            <stop offset=".641" stop-color="#A95F00"/>
            <stop offset=".652" stop-color="#C47500"/>
            <stop offset=".665" stop-color="#DA8800"/>
            <stop offset=".68" stop-color="#EB9700"/>
            <stop offset=".698" stop-color="#F6A100"/>
            <stop offset=".723" stop-color="#FDA600"/>
            <stop offset=".794" stop-color="#FFA800"/>
            <stop offset=".83" stop-color="#CF7F00"/>
            <stop offset="1" stop-color="#9E5600"/>
        </linearGradient>
        <linearGradient id="pmx5o1xabas" x1="25.665" y1="22.177" x2="27.932" y2="21.471" gradientUnits="userSpaceOnUse">
            <stop stop-color="#964F00"/>
            <stop offset=".061" stop-color="#FFA800"/>
            <stop offset=".127" stop-color="#FFA800"/>
            <stop offset=".442" stop-color="#944D00"/>
            <stop offset=".636" stop-color="#9A5200"/>
            <stop offset=".641" stop-color="#A95F00"/>
            <stop offset=".652" stop-color="#C47500"/>
            <stop offset=".665" stop-color="#DA8800"/>
            <stop offset=".68" stop-color="#EB9700"/>
            <stop offset=".698" stop-color="#F6A100"/>
            <stop offset=".723" stop-color="#FDA600"/>
            <stop offset=".794" stop-color="#FFA800"/>
            <stop offset=".83" stop-color="#CF7F00"/>
            <stop offset="1" stop-color="#9E5600"/>
        </linearGradient>
        <linearGradient id="2faslf401at" x1="25.654" y1="22.138" x2="27.921" y2="21.433" gradientUnits="userSpaceOnUse">
            <stop stop-color="#964F00"/>
            <stop offset=".061" stop-color="#FFA800"/>
            <stop offset=".127" stop-color="#FFA800"/>
            <stop offset=".442" stop-color="#944D00"/>
            <stop offset=".636" stop-color="#9A5200"/>
            <stop offset=".641" stop-color="#A95F00"/>
            <stop offset=".652" stop-color="#C47500"/>
            <stop offset=".665" stop-color="#DA8800"/>
            <stop offset=".68" stop-color="#EB9700"/>
            <stop offset=".698" stop-color="#F6A100"/>
            <stop offset=".723" stop-color="#FDA600"/>
            <stop offset=".794" stop-color="#FFA800"/>
            <stop offset=".83" stop-color="#CF7F00"/>
            <stop offset="1" stop-color="#9E5600"/>
        </linearGradient>
        <linearGradient id="9qc7vlo6tau" x1="25.874" y1="22.852" x2="28.143" y2="22.147" gradientUnits="userSpaceOnUse">
            <stop stop-color="#964F00"/>
            <stop offset=".061" stop-color="#FFA800"/>
            <stop offset=".127" stop-color="#FFA800"/>
            <stop offset=".442" stop-color="#944D00"/>
            <stop offset=".636" stop-color="#9A5200"/>
            <stop offset=".641" stop-color="#A95F00"/>
            <stop offset=".652" stop-color="#C47500"/>
            <stop offset=".665" stop-color="#DA8800"/>
            <stop offset=".68" stop-color="#EB9700"/>
            <stop offset=".698" stop-color="#F6A100"/>
            <stop offset=".723" stop-color="#FDA600"/>
            <stop offset=".794" stop-color="#FFA800"/>
            <stop offset=".83" stop-color="#CF7F00"/>
            <stop offset="1" stop-color="#9E5600"/>
        </linearGradient>
        <linearGradient id="0rzpzb46nav" x1="25.702" y1="22.296" x2="27.97" y2="21.59" gradientUnits="userSpaceOnUse">
            <stop stop-color="#964F00"/>
            <stop offset=".061" stop-color="#FFA800"/>
            <stop offset=".127" stop-color="#FFA800"/>
            <stop offset=".442" stop-color="#944D00"/>
            <stop offset=".636" stop-color="#9A5200"/>
            <stop offset=".641" stop-color="#A95F00"/>
            <stop offset=".652" stop-color="#C47500"/>
            <stop offset=".665" stop-color="#DA8800"/>
            <stop offset=".68" stop-color="#EB9700"/>
            <stop offset=".698" stop-color="#F6A100"/>
            <stop offset=".723" stop-color="#FDA600"/>
            <stop offset=".794" stop-color="#FFA800"/>
            <stop offset=".83" stop-color="#CF7F00"/>
            <stop offset="1" stop-color="#9E5600"/>
        </linearGradient>
        <linearGradient id="vl7m0p127aw" x1="25.366" y1="23.591" x2="28.608" y2="26.832" gradientUnits="userSpaceOnUse">
            <stop stop-color="#CF7900"/>
            <stop offset=".127" stop-color="#FFC000"/>
            <stop offset=".264" stop-color="#FFCF00"/>
            <stop offset=".442" stop-color="#D27700"/>
            <stop offset=".636" stop-color="#E88800"/>
            <stop offset=".723" stop-color="#FDCA00"/>
            <stop offset=".83" stop-color="#FFA700"/>
            <stop offset="1" stop-color="#BD6A00"/>
        </linearGradient>
        <linearGradient id="9wpnjlqmfax" x1="10.316" y1="2.167" x2="9.544" y2="1.147" gradientUnits="userSpaceOnUse">
            <stop stop-color="#FFDE00"/>
            <stop offset="1" stop-color="#C77400"/>
        </linearGradient>
        <linearGradient id="u8togczpqay" x1="26.275" y1="33.933" x2="25.881" y2="37.124" gradientUnits="userSpaceOnUse">
            <stop stop-color="#FFDE00"/>
            <stop offset="1" stop-color="#C77400"/>
        </linearGradient>
        <linearGradient id="u32e95zfcaA" x1="27.087" y1="24.757" x2="26.698" y2="24.835" gradientUnits="userSpaceOnUse">
            <stop stop-color="#FFDE00"/>
            <stop offset="1" stop-color="#C77400"/>
        </linearGradient>
        <linearGradient id="6lwqghi7aaB" x1="26.175" y1="22.383" x2="27.785" y2="24.31" gradientUnits="userSpaceOnUse">
            <stop stop-color="#964F00"/>
            <stop offset=".061" stop-color="#FFA800"/>
            <stop offset=".127" stop-color="#FFA800"/>
            <stop offset=".442" stop-color="#944D00"/>
            <stop offset=".636" stop-color="#9A5200"/>
            <stop offset=".641" stop-color="#A95F00"/>
            <stop offset=".652" stop-color="#C47500"/>
            <stop offset=".665" stop-color="#DA8800"/>
            <stop offset=".68" stop-color="#EB9700"/>
            <stop offset=".698" stop-color="#F6A100"/>
            <stop offset=".723" stop-color="#FDA600"/>
            <stop offset=".794" stop-color="#FFA800"/>
            <stop offset=".83" stop-color="#CF7F00"/>
            <stop offset="1" stop-color="#9E5600"/>
        </linearGradient>
        <linearGradient id="p4f8a0t8paC" x1="25.831" y1="22.671" x2="27.441" y2="24.597" gradientUnits="userSpaceOnUse">
            <stop stop-color="#964F00"/>
            <stop offset=".061" stop-color="#FFA800"/>
            <stop offset=".127" stop-color="#FFA800"/>
            <stop offset=".442" stop-color="#944D00"/>
            <stop offset=".636" stop-color="#9A5200"/>
            <stop offset=".641" stop-color="#A95F00"/>
            <stop offset=".652" stop-color="#C47500"/>
            <stop offset=".665" stop-color="#DA8800"/>
            <stop offset=".68" stop-color="#EB9700"/>
            <stop offset=".698" stop-color="#F6A100"/>
            <stop offset=".723" stop-color="#FDA600"/>
            <stop offset=".794" stop-color="#FFA800"/>
            <stop offset=".83" stop-color="#CF7F00"/>
            <stop offset="1" stop-color="#9E5600"/>
        </linearGradient>
        <linearGradient id="idm3q2fd8aD" x1="25.864" y1="22.645" x2="27.473" y2="24.571" gradientUnits="userSpaceOnUse">
            <stop stop-color="#964F00"/>
            <stop offset=".061" stop-color="#FFA800"/>
            <stop offset=".127" stop-color="#FFA800"/>
            <stop offset=".442" stop-color="#944D00"/>
            <stop offset=".636" stop-color="#9A5200"/>
            <stop offset=".641" stop-color="#A95F00"/>
            <stop offset=".652" stop-color="#C47500"/>
            <stop offset=".665" stop-color="#DA8800"/>
            <stop offset=".68" stop-color="#EB9700"/>
            <stop offset=".698" stop-color="#F6A100"/>
            <stop offset=".723" stop-color="#FDA600"/>
            <stop offset=".794" stop-color="#FFA800"/>
            <stop offset=".83" stop-color="#CF7F00"/>
            <stop offset="1" stop-color="#9E5600"/>
        </linearGradient>
        <linearGradient id="diya1yls6aE" x1="25.257" y1="23.15" x2="26.867" y2="25.078" gradientUnits="userSpaceOnUse">
            <stop stop-color="#964F00"/>
            <stop offset=".061" stop-color="#FFA800"/>
            <stop offset=".127" stop-color="#FFA800"/>
            <stop offset=".442" stop-color="#944D00"/>
            <stop offset=".636" stop-color="#9A5200"/>
            <stop offset=".641" stop-color="#A95F00"/>
            <stop offset=".652" stop-color="#C47500"/>
            <stop offset=".665" stop-color="#DA8800"/>
            <stop offset=".68" stop-color="#EB9700"/>
            <stop offset=".698" stop-color="#F6A100"/>
            <stop offset=".723" stop-color="#FDA600"/>
            <stop offset=".794" stop-color="#FFA800"/>
            <stop offset=".83" stop-color="#CF7F00"/>
            <stop offset="1" stop-color="#9E5600"/>
        </linearGradient>
        <linearGradient id="vkolbncviaF" x1="25.73" y1="22.755" x2="27.339" y2="24.682" gradientUnits="userSpaceOnUse">
            <stop stop-color="#964F00"/>
            <stop offset=".061" stop-color="#FFA800"/>
            <stop offset=".127" stop-color="#FFA800"/>
            <stop offset=".442" stop-color="#944D00"/>
            <stop offset=".636" stop-color="#9A5200"/>
            <stop offset=".641" stop-color="#A95F00"/>
            <stop offset=".652" stop-color="#C47500"/>
            <stop offset=".665" stop-color="#DA8800"/>
            <stop offset=".68" stop-color="#EB9700"/>
            <stop offset=".698" stop-color="#F6A100"/>
            <stop offset=".723" stop-color="#FDA600"/>
            <stop offset=".794" stop-color="#FFA800"/>
            <stop offset=".83" stop-color="#CF7F00"/>
            <stop offset="1" stop-color="#9E5600"/>
        </linearGradient>
        <linearGradient id="082hw9el4aG" x1="20.32" y1="28.524" x2="22.15" y2="32.727" gradientUnits="userSpaceOnUse">
            <stop stop-color="#CF7900"/>
            <stop offset=".127" stop-color="#FFC000"/>
            <stop offset=".264" stop-color="#FFCF00"/>
            <stop offset=".442" stop-color="#D27700"/>
            <stop offset=".636" stop-color="#E88800"/>
            <stop offset=".723" stop-color="#FDCA00"/>
            <stop offset=".83" stop-color="#FFA700"/>
            <stop offset="1" stop-color="#BD6A00"/>
        </linearGradient>
        <linearGradient id="sp5v8lkwiaH" x1="14.147" y1="3.064" x2="13.801" y2="1.832" gradientUnits="userSpaceOnUse">
            <stop stop-color="#FFDE00"/>
            <stop offset="1" stop-color="#C77400"/>
        </linearGradient>
        <linearGradient id="kwg050g6oaI" x1="17.379" y1="38.481" x2="15.845" y2="41.307" gradientUnits="userSpaceOnUse">
            <stop stop-color="#FFDE00"/>
            <stop offset="1" stop-color="#C77400"/>
        </linearGradient>
        <linearGradient id="4cj4c9v6daK" x1="21.629" y1="29.515" x2="21.452" y2="28.698" gradientUnits="userSpaceOnUse">
            <stop stop-color="#FFDE00"/>
            <stop offset="1" stop-color="#C77400"/>
        </linearGradient>
        <linearGradient id="gffikkngzaL" x1="21.504" y1="27.682" x2="22.297" y2="30.064" gradientUnits="userSpaceOnUse">
            <stop stop-color="#964F00"/>
            <stop offset=".061" stop-color="#FFA800"/>
            <stop offset=".127" stop-color="#FFA800"/>
            <stop offset=".442" stop-color="#944D00"/>
            <stop offset=".636" stop-color="#9A5200"/>
            <stop offset=".641" stop-color="#A95F00"/>
            <stop offset=".652" stop-color="#C47500"/>
            <stop offset=".665" stop-color="#DA8800"/>
            <stop offset=".68" stop-color="#EB9700"/>
            <stop offset=".698" stop-color="#F6A100"/>
            <stop offset=".723" stop-color="#FDA600"/>
            <stop offset=".794" stop-color="#FFA800"/>
            <stop offset=".83" stop-color="#CF7F00"/>
            <stop offset="1" stop-color="#9E5600"/>
        </linearGradient>
        <linearGradient id="hdkx8rq2taM" x1="21.078" y1="27.823" x2="21.871" y2="30.206" gradientUnits="userSpaceOnUse">
            <stop stop-color="#964F00"/>
            <stop offset=".061" stop-color="#FFA800"/>
            <stop offset=".127" stop-color="#FFA800"/>
            <stop offset=".442" stop-color="#944D00"/>
            <stop offset=".636" stop-color="#9A5200"/>
            <stop offset=".641" stop-color="#A95F00"/>
            <stop offset=".652" stop-color="#C47500"/>
            <stop offset=".665" stop-color="#DA8800"/>
            <stop offset=".68" stop-color="#EB9700"/>
            <stop offset=".698" stop-color="#F6A100"/>
            <stop offset=".723" stop-color="#FDA600"/>
            <stop offset=".794" stop-color="#FFA800"/>
            <stop offset=".83" stop-color="#CF7F00"/>
            <stop offset="1" stop-color="#9E5600"/>
        </linearGradient>
        <linearGradient id="p4ldthkkraN" x1="21.118" y1="27.812" x2="21.911" y2="30.194" gradientUnits="userSpaceOnUse">
            <stop stop-color="#964F00"/>
            <stop offset=".061" stop-color="#FFA800"/>
            <stop offset=".127" stop-color="#FFA800"/>
            <stop offset=".442" stop-color="#944D00"/>
            <stop offset=".636" stop-color="#9A5200"/>
            <stop offset=".641" stop-color="#A95F00"/>
            <stop offset=".652" stop-color="#C47500"/>
            <stop offset=".665" stop-color="#DA8800"/>
            <stop offset=".68" stop-color="#EB9700"/>
            <stop offset=".698" stop-color="#F6A100"/>
            <stop offset=".723" stop-color="#FDA600"/>
            <stop offset=".794" stop-color="#FFA800"/>
            <stop offset=".83" stop-color="#CF7F00"/>
            <stop offset="1" stop-color="#9E5600"/>
        </linearGradient>
        <linearGradient id="ky4leicdbaO" x1="20.369" y1="28.06" x2="21.162" y2="30.443" gradientUnits="userSpaceOnUse">
            <stop stop-color="#964F00"/>
            <stop offset=".061" stop-color="#FFA800"/>
            <stop offset=".127" stop-color="#FFA800"/>
            <stop offset=".442" stop-color="#944D00"/>
            <stop offset=".636" stop-color="#9A5200"/>
            <stop offset=".641" stop-color="#A95F00"/>
            <stop offset=".652" stop-color="#C47500"/>
            <stop offset=".665" stop-color="#DA8800"/>
            <stop offset=".68" stop-color="#EB9700"/>
            <stop offset=".698" stop-color="#F6A100"/>
            <stop offset=".723" stop-color="#FDA600"/>
            <stop offset=".794" stop-color="#FFA800"/>
            <stop offset=".83" stop-color="#CF7F00"/>
            <stop offset="1" stop-color="#9E5600"/>
        </linearGradient>
        <linearGradient id="jujn072x3aP" x1="20.954" y1="27.866" x2="21.746" y2="30.248" gradientUnits="userSpaceOnUse">
            <stop stop-color="#964F00"/>
            <stop offset=".061" stop-color="#FFA800"/>
            <stop offset=".127" stop-color="#FFA800"/>
            <stop offset=".442" stop-color="#944D00"/>
            <stop offset=".636" stop-color="#9A5200"/>
            <stop offset=".641" stop-color="#A95F00"/>
            <stop offset=".652" stop-color="#C47500"/>
            <stop offset=".665" stop-color="#DA8800"/>
            <stop offset=".68" stop-color="#EB9700"/>
            <stop offset=".698" stop-color="#F6A100"/>
            <stop offset=".723" stop-color="#FDA600"/>
            <stop offset=".794" stop-color="#FFA800"/>
            <stop offset=".83" stop-color="#CF7F00"/>
            <stop offset="1" stop-color="#9E5600"/>
        </linearGradient>
        <radialGradient id="sv5sbw518V" cx="0" cy="0" r="1" gradientUnits="userSpaceOnUse" gradientTransform="rotate(-85.4 24.49 -2.565) scale(3.04189)">
            <stop stop-color="#9FA8B1"/>
            <stop offset="1" stop-color="#444D53"/>
        </radialGradient>
        <radialGradient id="0yv7glmjraf" cx="0" cy="0" r="1" gradientUnits="userSpaceOnUse" gradientTransform="rotate(19.743 -78.26 85.423) scale(3.04177)">
            <stop stop-color="#9FA8B1"/>
            <stop offset="1" stop-color="#444D53"/>
        </radialGradient>
        <radialGradient id="8vlfjscpeap" cx="0" cy="0" r="1" gradientUnits="userSpaceOnUse" gradientTransform="rotate(-67.4 30.274 -12.093) scale(2.97936)">
            <stop stop-color="#FFA800"/>
            <stop offset="1" stop-color="#944D00"/>
        </radialGradient>
        <radialGradient id="itqthto5aaz" cx="0" cy="0" r="1" gradientUnits="userSpaceOnUse" gradientTransform="translate(29.146 26.03) scale(3.14956)">
            <stop stop-color="#FFA800"/>
            <stop offset="1" stop-color="#944D00"/>
        </radialGradient>
        <radialGradient id="5h9z2b3caaJ" cx="0" cy="0" r="1" gradientUnits="userSpaceOnUse" gradientTransform="rotate(21.475 -73.343 76.551) scale(3.14986)">
            <stop stop-color="#FFA800"/>
            <stop offset="1" stop-color="#944D00"/>
        </radialGradient>
        <radialGradient id="10azoxr38aQ" cx="0" cy="0" r="1" gradientUnits="userSpaceOnUse" gradientTransform="rotate(-17.422 91.15 -66.288) scale(4.38505)">
            <stop offset=".574" stop-color="#FFFF0E" stop-opacity="0"/>
            <stop offset=".685" stop-color="#FFF00E" stop-opacity=".101"/>
            <stop offset=".897" stop-color="#FFC90E" stop-opacity=".295"/>
            <stop offset="1" stop-color="#FFB30E" stop-opacity=".39"/>
        </radialGradient>
        <radialGradient id="fkg0sp3uwaR" cx="0" cy="0" r="1" gradientUnits="userSpaceOnUse" gradientTransform="rotate(-17.422 91.15 -66.287) scale(5.29889)">
            <stop offset=".574" stop-color="#FFFF0E" stop-opacity="0"/>
            <stop offset=".685" stop-color="#FFF00E" stop-opacity=".101"/>
            <stop offset=".897" stop-color="#FFC90E" stop-opacity=".295"/>
            <stop offset="1" stop-color="#FFB30E" stop-opacity=".39"/>
        </radialGradient>
        <radialGradient id="sf3i0ndreaS" cx="0" cy="0" r="1" gradientUnits="userSpaceOnUse" gradientTransform="rotate(-17.422 64.588 -43.553) scale(4.38521)">
            <stop offset=".574" stop-color="#FFFF0E" stop-opacity="0"/>
            <stop offset=".685" stop-color="#FFF00E" stop-opacity=".101"/>
            <stop offset=".897" stop-color="#FFC90E" stop-opacity=".295"/>
            <stop offset="1" stop-color="#FFB30E" stop-opacity=".39"/>
        </radialGradient>
        <radialGradient id="j71mcrl7haT" cx="0" cy="0" r="1" gradientUnits="userSpaceOnUse" gradientTransform="rotate(-17.422 64.588 -43.552) scale(5.30007)">
            <stop offset=".574" stop-color="#FFFF0E" stop-opacity="0"/>
            <stop offset=".685" stop-color="#FFF00E" stop-opacity=".101"/>
            <stop offset=".897" stop-color="#FFC90E" stop-opacity=".295"/>
            <stop offset="1" stop-color="#FFB30E" stop-opacity=".39"/>
        </radialGradient>
        <radialGradient id="xaszgozriaU" cx="0" cy="0" r="1" gradientUnits="userSpaceOnUse" gradientTransform="rotate(-17.422 70.124 -97.66) scale(4.38521)">
            <stop offset=".574" stop-color="#FFFF0E" stop-opacity="0"/>
            <stop offset=".685" stop-color="#FFF00E" stop-opacity=".101"/>
            <stop offset=".897" stop-color="#FFC90E" stop-opacity=".295"/>
            <stop offset="1" stop-color="#FFB30E" stop-opacity=".39"/>
        </radialGradient>
        <radialGradient id="y2f07ecy2aV" cx="0" cy="0" r="1" gradientUnits="userSpaceOnUse" gradientTransform="rotate(-17.422 70.124 -97.66) scale(5.3003)">
            <stop offset=".574" stop-color="#FFFF0E" stop-opacity="0"/>
            <stop offset=".685" stop-color="#FFF00E" stop-opacity=".101"/>
            <stop offset=".897" stop-color="#FFC90E" stop-opacity=".295"/>
            <stop offset="1" stop-color="#FFB30E" stop-opacity=".39"/>
        </radialGradient>
    </defs>
</svg>
