<svg width="77" height="22" viewBox="0 0 77 22" fill="none" xmlns="http://www.w3.org/2000/svg">
    <path d="M37.648 9.568c2.464 0 4.192-.928 4.192-2.784C41.84 4.928 40.112 4 37.648 4c-2.464 0-4.192.928-4.192 2.784 0 1.856 1.728 2.784 4.192 2.784zm2.224 2.928v1.872h3.52v.384h2.704V4.144h-2.704v8.352h-3.52zm-2.224-6.512c.96 0 1.584.256 1.584.8s-.624.8-1.584.8c-.96 0-1.584-.256-1.584-.8s.624-.8 1.584-.8zm-1.072 9.568v-1.376h2.16v-2.064h.288c1.36 0 2.736-.128 3.584-.496v-2.08c-.848.368-2.272.496-3.536.496h-6.288v2.08h3.264v1.36h-2.176v4.336h12.416v-2.256h-9.712zM53.647 4.096h-2.768v1.696h-3.056v2.464h8.864V5.792h-3.04V4.096zm8.32 5.04h-1.6V4.144h-2.704v13.664h2.704V11.76h1.6V9.136zm-9.712-.32c-2.464 0-3.968 1.84-3.968 4.256 0 2.432 1.504 4.256 3.968 4.256s3.968-1.824 3.968-4.256c0-2.416-1.504-4.256-3.968-4.256zm0 6.192c-.88 0-1.392-.768-1.392-1.936s.512-1.936 1.392-1.936c.88 0 1.392.768 1.392 1.936s-.512 1.936-1.392 1.936zM72.541 13.472h2.816V4.464H63.005v2.512h9.536v6.496zM69.533 14.8V9.456h-2.8V14.8h-4.448v2.528H76.11V14.8h-6.576z" fill="#D0DCEC"/>
    <path d="M18.326 11.01h-6.2v3.676h4.022a6.312 6.312 0 1 1 .815-5.808l4.392-1.574A10.999 10.999 0 0 0 10.485.012 10.995 10.995 0 0 0 .34 8.285a11.003 11.003 0 0 0 4.952 12.12A10.994 10.994 0 0 0 18.326 19.2v2.796H22V11.01h-3.674z" fill="#2F88FF"/>
</svg>
