<svg width="28" height="28" viewBox="0 0 28 28" fill="none" xmlns="http://www.w3.org/2000/svg">
    <path d="M12.32 0H11.2v1.12h1.12V0zM15.68 0h1.12v1.12h1.12v1.12h-2.24v1.12h-1.12v1.12h1.12V3.36h1.12v1.12h1.12V5.6H16.8v2.24h1.12V5.6h1.12v3.36h1.12v1.12h1.12v1.12h2.24v1.12h-2.24v2.24h1.12v1.12h1.12v1.12h-3.36v-1.12h-1.12v-1.12H16.8v1.12h-2.24v-1.12h1.12v-1.12h4.48v-1.12h-1.12v-2.24h-1.12V8.96H16.8v1.12h-2.24V8.96h1.12V5.6h-3.36V4.48h1.12V1.12h2.24V0z" fill="#000"/>
    <path d="M19.04 0h-1.12v1.12h1.12V0zM0 0v7.84h7.84V0H0zm6.72 6.72h-5.6v-5.6h5.6v5.6zM8.96 1.12h1.12v1.12h1.12V5.6h-1.12v2.24H8.96V1.12zM20.16 0v7.84H28V0h-7.84zm6.72 6.72h-5.6v-5.6h5.6v5.6z" fill="#000"/>
    <path d="M5.6 2.24H2.24V5.6H5.6V2.24zM19.04 2.24h-1.12v2.24h1.12V2.24zM25.76 2.24H22.4V5.6h3.36V2.24zM12.32 5.6H11.2v2.24h1.12V5.6zM14.56 6.72h-1.12v2.24h1.12V6.72zM3.36 8.96H2.24v1.12h1.12V8.96zM5.6 8.96h4.48v1.12H8.96v1.12h1.12v2.24H7.84v-1.12H6.72V11.2h1.12v-1.12H5.6V8.96zM13.44 8.96H11.2v1.12h2.24V8.96zM21.28 8.96h5.6v1.12H28v2.24h-1.12V11.2h-1.12v-1.12h-4.48V8.96zM1.12 10.08H0v1.12h1.12v-1.12z" fill="#000"/>
    <path d="M4.48 10.08H3.36v1.12h1.12v-1.12zM13.44 10.08h1.12v1.12h2.24v-1.12h1.12v2.24h-3.36v2.24h-1.12v-2.24H11.2V11.2h2.24v-1.12zM1.12 12.32H0v2.24h1.12v-2.24zM3.36 12.32H2.24v1.12h1.12v-1.12z" fill="#000"/>
    <path d="M4.48 12.32h2.24v1.12H5.6v1.12H4.48v3.36H3.36v1.12H0v-1.12h2.24V16.8H0v-1.12h1.12v-1.12h1.12v1.12h1.12v-2.24h1.12v-1.12zM24.64 12.32h-1.12v2.24h1.12v-2.24zM26.88 12.32h-1.12v1.12h1.12v-1.12z" fill="#000"/>
    <path d="M7.84 13.44H6.72v1.12h1.12v-1.12zM11.2 13.44h-1.12v1.12h1.12v-1.12zM28 13.44h-1.12v3.36H28v-3.36zM6.72 14.56H5.6v1.12h1.12v-1.12zM25.76 14.56h-1.12v2.24h1.12v-2.24zM7.84 15.68H6.72v1.12h1.12v-1.12zM11.2 15.68h-1.12v1.12h1.12v-1.12zM13.44 15.68h-1.12v2.24h1.12v-2.24zM16.8 16.8h-1.12v1.12h1.12V16.8zM5.6 17.92H4.48v1.12H5.6v-1.12zM6.72 17.92h5.6v2.24H11.2v-1.12h-1.12v1.12h1.12v1.12h-1.12v1.12H8.96v-3.36H6.72v-1.12zM14.56 17.92h1.12v1.12h1.12v1.12h-2.24v-2.24zM28 17.92h-1.12v4.48H28v-4.48z" fill="#000"/>
    <path d="M25.76 24.64v-1.12h-1.12v-2.24h-1.12v-1.12h1.12V16.8h-1.12v1.12h-3.36V16.8h-1.12v-1.12H16.8v1.12h1.12v1.12H16.8v1.12h1.12v3.36H16.8v-1.12h-1.12v1.12h-1.12v-2.24h-2.24v3.36h-2.24v1.12H8.96v1.12h2.24v1.12h1.12v-2.24h1.12v-1.12h1.12v1.12h1.12V28h1.12v-3.36h3.36v-1.12h1.12v1.12h1.12v1.12h1.12v1.12H22.4v-1.12h-1.12v1.12h-1.12v-1.12h-2.24V28h7.84v-1.12h-1.12v-2.24h1.12zM22.4 22.4h-3.36v-3.36h3.36v3.36z" fill="#000"/>
    <path d="M21.28 20.16h-1.12v1.12h1.12v-1.12zM0 20.16V28h7.84v-7.84H0zm6.72 6.72h-5.6v-5.6h5.6v5.6z" fill="#000"/>
    <path d="M5.6 22.4H2.24v3.36H5.6V22.4zM28 24.64h-2.24v1.12H28v-1.12zM14.56 26.88h-2.24V28h2.24v-1.12zM28 26.88h-1.12V28H28v-1.12z" fill="#000"/>
</svg>
